<?xml version="1.0" standalone="no"?>
<!DOCTYPE svg PUBLIC "-//W3C//DTD SVG 1.1//EN" "http://www.w3.org/Graphics/SVG/1.1/DTD/svg11.dtd" >
<svg xmlns="http://www.w3.org/2000/svg" xmlns:xlink="http://www.w3.org/1999/xlink" version="1.1">
<metadata></metadata>
<defs>
<font id="fira_monoregular" horiz-adv-x="982" >
<font-face units-per-em="2048" ascent="1638" descent="-410" />
<missing-glyph horiz-adv-x="500" />
<glyph horiz-adv-x="0" />
<glyph horiz-adv-x="682" />
<glyph unicode="&#xd;" />
<glyph unicode=" " />
<glyph unicode="!" d="M380 92q0 46 31.5 78t78.5 32q31 0 56.5 -15t39.5 -40t14 -55q0 -47 -31.5 -78.5t-78.5 -31.5t-78.5 31.5t-31.5 78.5zM411 1129h155l-16 -757h-122z" />
<glyph unicode="&#x22;" d="M269 1210h172l-27 -425h-120zM542 1210h172l-24 -425h-121z" />
<glyph unicode="#" d="M87 278v105h143l50 364h-133v108h147l37 274h116l-37 -274h239l37 274h117l-38 -274h131v-108h-146l-47 -364h132v-105h-149l-34 -278h-116l36 278h-238l-37 -278h-117l36 278h-129zM347 383h238l51 364h-241z" />
<glyph unicode="$" d="M113 136l82 92q118 -117 260 -128v452q-148 49 -223.5 125.5t-75.5 187.5q0 50 19 96t55 84.5t94 65t131 33.5v246h112v-246q173 -17 299 -131l-83 -87q-96 89 -216 103v-372q44 -15 80.5 -31t73.5 -38t65 -49.5t50 -61t34 -76t12 -91.5q0 -123 -82 -212t-233 -109v-239 h-112v234q-106 6 -193 48.5t-149 103.5zM302 866q0 -60 33 -99.5t120 -73.5v333q-70 -12 -111.5 -52t-41.5 -108zM567 106q165 33 165 202q0 71 -37.5 119.5t-127.5 86.5v-408z" />
<glyph unicode="%" d="M31 883q0 111 65.5 187.5t175.5 76.5q112 0 176.5 -76t64.5 -188q0 -52 -16.5 -99t-46 -84t-76 -59t-102.5 -22q-73 0 -129 37.5t-84 97t-28 129.5zM53 25l774 1133l87 -57l-775 -1134zM158 883q0 -51 14.5 -89.5t40 -58t59.5 -19.5q52 0 82.5 42t30.5 125 q0 85 -30.5 125.5t-82.5 40.5q-33 0 -58.5 -18t-40.5 -56t-15 -92zM474 255q0 110 65 186.5t175 76.5q112 0 176.5 -76t64.5 -187q0 -71 -27 -130.5t-83 -97t-131 -37.5q-73 0 -129 37.5t-83.5 97.5t-27.5 130zM600 255q0 -78 31.5 -123t82.5 -45q52 0 82.5 42t30.5 126 q0 57 -14.5 94.5t-39.5 53.5t-59 16q-33 0 -58.5 -16.5t-40.5 -54t-15 -93.5z" />
<glyph unicode="&#x26;" d="M89 319q0 127 66 208.5t189 106.5v5q-53 13 -92.5 37t-61.5 56.5t-32.5 67.5t-10.5 75q0 54 22 103t61 86.5t98 59.5t129 22q81 0 145.5 -26.5t127.5 -97.5l-81 -75q-45 50 -89.5 72.5t-104.5 22.5q-56 0 -96 -21.5t-58.5 -59t-18.5 -86.5q0 -76 59 -131.5t144 -55.5h456 v-110h-148v-445q-21 -27 -48 -50.5t-68 -48t-98.5 -38.5t-124.5 -14q-93 0 -164.5 28.5t-114.5 77t-64.5 107.5t-21.5 124zM223 325q0 -37 8.5 -70.5t26.5 -63t45 -51t66.5 -34t87.5 -12.5q144 0 210 84v400h-203q-61 0 -108.5 -23t-75.5 -60.5t-42.5 -81t-14.5 -88.5z" />
<glyph unicode="'" d="M405 1210h173l-26 -425h-121z" />
<glyph unicode="(" d="M205 573.5q0 137.5 27.5 251t84.5 210t130.5 175.5t179.5 166l71 -75q-94 -84 -155 -155t-107 -157.5t-66.5 -187t-20.5 -227.5t21 -228t67 -187.5t107 -158.5t154 -154l-71 -76q-106 87 -179.5 166.5t-130.5 176t-84.5 210t-27.5 251z" />
<glyph unicode=")" d="M285 -154q93 82 154 154t107 158.5t67 187.5t21 228t-20.5 227.5t-66.5 187t-107 157.5t-155 155l70 75q107 -87 180 -166t130.5 -175.5t85 -210t27.5 -251t-27.5 -251t-85 -210t-130.5 -176t-180 -166.5z" />
<glyph unicode="*" d="M158 566l40 130l248 -103l-24 270h138l-24 -270l249 103l41 -130l-259 -60l180 -196l-111 -85l-143 229l-132 -235l-117 79l174 208z" />
<glyph unicode="+" d="M190 452v115h236v244h128v-244h239v-115h-239v-244h-128v244h-236z" />
<glyph unicode="," d="M336 -294l77 324q-24 17 -38 46.5t-14 61.5q0 55 37.5 93.5t92.5 38.5q56 0 94.5 -38t38.5 -93q0 -62 -31 -129l-133 -304h-124z" />
<glyph unicode="-" d="M205 454v118h573v-118h-573z" />
<glyph unicode="." d="M346 126q0 61 41.5 102.5t102.5 41.5q62 0 103 -41.5t41 -102.5t-41 -102.5t-103 -41.5t-103 41.5t-41 102.5z" />
<glyph unicode="/" d="M87 -120l699 1446l110 -53l-698 -1442z" />
<glyph unicode="0" d="M123 566q0 282 94 431.5t274 149.5q121 0 203.5 -67.5t124 -197t41.5 -316.5q0 -283 -94 -433.5t-275 -150.5t-274.5 150t-93.5 434zM267 566q0 -472 224 -472q225 0 225 472q0 469 -225 469q-224 0 -224 -469zM385 566q0 44 30.5 75t75.5 31q47 0 78 -31t31 -75 q0 -46 -31 -77.5t-78 -31.5q-22 0 -42 8.5t-34 23t-22 34.5t-8 43z" />
<glyph unicode="1" d="M156 919l335 210h122v-1018h234v-111h-650v111h277v867l-258 -156z" />
<glyph unicode="2" d="M97 985q68 83 150 122.5t194 39.5q156 0 248.5 -89t92.5 -226q0 -79 -25.5 -151t-89 -158t-154 -179t-236.5 -226h531l-17 -118h-671v111q134 128 218.5 214.5t147 160t93.5 129.5t45 105.5t14 106.5q0 95 -54.5 149t-149.5 54q-79 0 -132.5 -27t-109.5 -92z" />
<glyph unicode="3" d="M85 131l92 75q46 -54 112.5 -82.5t138.5 -28.5q117 0 183.5 62t66.5 168q0 214 -234 214h-94l17 110h67q42 0 79.5 12t67.5 35t48 61.5t18 88.5q0 89 -59.5 139t-153.5 50q-70 0 -125 -24.5t-114 -78.5l-75 84q138 131 321 131q78 0 143.5 -22.5t109.5 -61.5t68 -90.5 t24 -109.5q0 -99 -63.5 -171t-155.5 -90q51 -4 96 -23.5t81 -53t57 -85.5t21 -115q0 -148 -108.5 -245.5t-282.5 -97.5q-100 0 -192.5 37.5t-153.5 111.5z" />
<glyph unicode="4" d="M118 274v101l331 772l115 -49l-300 -713h324l12 320h119v-320h146v-111h-146v-274h-133v274h-468z" />
<glyph unicode="5" d="M126 116l85 84q103 -105 243 -105q113 0 175 68.5t62 198.5q0 128 -55.5 184.5t-149.5 56.5q-45 0 -81 -8.5t-94 -28.5h-111v563h598l-20 -111h-445v-356q88 49 193 49q141 0 225 -93.5t84 -260.5q0 -170 -103.5 -272.5t-277.5 -102.5q-187 0 -328 134z" />
<glyph unicode="6" d="M130 533q0 187 49 325.5t144 213.5t226 75q123 0 225 -67l-55 -92q-80 47 -172 47q-128 0 -201.5 -121.5t-76.5 -330.5q100 151 272 151q66 0 122.5 -22t101 -64.5t70 -111t25.5 -156.5q0 -92 -28 -167.5t-76 -126t-112.5 -77.5t-138.5 -27q-101 0 -174 38t-116.5 111.5 t-64 172.5t-20.5 229zM270 462q4 -191 59.5 -279.5t175.5 -88.5q70 0 118.5 34t72 97t23.5 150q0 247 -200 247q-78 0 -141.5 -42.5t-107.5 -117.5z" />
<glyph unicode="7" d="M159 1014v115h668v-107l-450 -1036l-128 37l439 991h-529z" />
<glyph unicode="8" d="M106 300q0 188 228 294q-62 30 -101 65t-59 82.5t-20 110.5q0 50 14.5 93.5t40 75t58.5 56.5t71 40t76.5 22.5t76.5 7.5q42 0 82.5 -7.5t78.5 -22.5t70 -39t56 -54.5t37.5 -72.5t13.5 -91q0 -54 -23 -100t-65 -83t-107 -72q114 -47 178.5 -124t64.5 -178 q0 -141 -106.5 -231t-282.5 -90q-89 0 -161.5 24.5t-120.5 67.5t-74 101t-26 125zM252 300q0 -98 60.5 -152t175.5 -54t178.5 57.5t63.5 148.5q0 106 -90 165q-51 34 -200 86h-1l-1 1h-1h-1l-1 1h-1l-1 1h-1h-1l-1 1h-2q-176 -81 -176 -255zM288 850q0 -21 4 -39.5t9.5 -33 t17.5 -28.5t21.5 -23.5t30 -20.5t33.5 -17.5t40.5 -16.5t43.5 -15.5t50 -16.5q56 33 88 61t50 66t18 88q0 85 -53.5 134.5t-149.5 49.5q-64 0 -109.5 -21.5t-69.5 -64t-24 -102.5z" />
<glyph unicode="9" d="M108 774q0 88 28.5 159.5t78 117.5t116 70.5t143.5 24.5q184 0 276 -114.5t92 -321.5q0 -121 -14.5 -214.5t-48 -167t-79.5 -127.5t-117 -97.5t-151 -75t-191 -62.5l-33 104q118 32 204 71.5t151 96.5t98.5 135t34.5 179q-42 -59 -109 -98t-154 -41q-144 -1 -234.5 96.5 t-90.5 264.5zM252 769q0 -126 53 -186t152 -59q142 2 242 151q3 133 -21.5 212.5t-73.5 113t-130 33.5q-73 0 -122.5 -30t-74.5 -89.5t-25 -145.5z" />
<glyph unicode=":" d="M359 114q0 55 37.5 94t93.5 39t94 -39t38 -94q0 -56 -37.5 -94t-94.5 -38t-94 38t-37 94zM359 706q0 22 6.5 42t18 36t27.5 28t36 19t43 7q57 0 94.5 -38.5t37.5 -93.5q0 -56 -38 -95t-94 -39q-37 0 -67 18t-47 49t-17 67z" />
<glyph unicode=";" d="M333 -295l78 325q-52 39 -52 109q0 56 37.5 94.5t93.5 38.5t94 -38.5t38 -94.5q0 -58 -31 -129l-134 -305h-124zM359 706q0 22 6.5 42t18 36t27.5 28t36 19t43 7q57 0 94.5 -38.5t37.5 -93.5q0 -56 -38 -95t-94 -39q-37 0 -67 18t-47 49t-17 67z" />
<glyph unicode="&#x3c;" d="M144 442v143l630 389l67 -106l-579 -355l579 -359l-75 -100z" />
<glyph unicode="=" d="M174 295v118h636v-118h-636zM174 606v118h636v-118h-636z" />
<glyph unicode="&#x3e;" d="M144 156l578 357l-578 355l67 106l630 -391v-141l-623 -388z" />
<glyph unicode="?" d="M147 985q139 162 343 162q73 0 135 -21.5t103 -57t63.5 -81t22.5 -94.5q0 -53 -16 -95.5t-42.5 -70t-58 -51.5t-63 -47t-58 -49t-42.5 -64.5t-16 -87.5v-56h-138v64q0 48 12.5 88t33 68t46.5 54t53 45t53.5 40.5t46.5 42.5t32.5 49.5t12.5 61.5q0 68 -54.5 107.5 t-138.5 39.5q-61 0 -122 -30.5t-111 -90.5zM344 92q0 46 31.5 78t78.5 32q31 0 56.5 -15t39.5 -40t14 -55q0 -47 -31.5 -78.5t-78.5 -31.5t-78.5 31.5t-31.5 78.5z" />
<glyph unicode="@" d="M14 968q209 179 452 179q88 0 160 -20.5t122.5 -55t89 -87t61.5 -109t37 -127.5t19 -137.5t5 -143.5q0 -108 -4 -189.5t-14.5 -153t-28 -120.5t-44 -84.5t-64 -52t-86.5 -16.5q-48 0 -87.5 25t-61.5 62.5t-33.5 76t-10.5 70.5h-7q-65 -160 -224 -160q-52 0 -93.5 18.5 t-70 51t-47 80t-27 103.5t-8.5 122q0 141 38 236t109.5 140.5t173.5 45.5q61 0 113.5 -13t118.5 -47v-485q0 -51 5.5 -89.5t15.5 -62t25 -38t31.5 -20t36.5 -5.5q69 0 89 145q13 88 13 359q0 71 -4 129.5t-13.5 118t-26 104.5t-43.5 85.5t-63 66.5t-87 41t-114 15 q-204 0 -372 -151zM182 300q0 -272 129 -272q31 0 57 10t41.5 22.5t30.5 34.5t21 34.5t15 33.5q3 6 4 9v426q-48 23 -105 23q-108 0 -150.5 -77.5t-42.5 -243.5z" />
<glyph unicode="A" d="M33 0l369 1129h180l367 -1129h-148l-90 288h-447l-90 -288h-141zM302 406h372l-186 602z" />
<glyph unicode="B" d="M158 0v1129h278q63 0 118 -8.5t108 -29t90.5 -52t60 -81.5t22.5 -114q0 -53 -17.5 -96t-48 -72.5t-67 -48.5t-78.5 -29q261 -44 261 -277q0 -71 -24.5 -127.5t-64.5 -92t-96 -59t-114.5 -33t-123.5 -9.5h-304zM300 118h186q37 0 68.5 4t66 17.5t58.5 34.5t39.5 57.5 t15.5 84.5q0 42 -8.5 75.5t-25 57t-38 39.5t-49.5 25.5t-57.5 13.5t-64.5 4h-191v-413zM300 649h182q208 0 208 186q0 94 -57 136t-164 42h-169v-364z" />
<glyph unicode="C" d="M103 566q0 138 39 250t105.5 183.5t153.5 109.5t185 38q72 0 131 -13.5t104.5 -36.5t92.5 -60l-80 -93q-99 83 -238 83q-47 0 -89 -10.5t-81.5 -32.5t-70.5 -59t-54.5 -87t-36 -119t-12.5 -153q0 -71 9 -131.5t25 -107.5t39.5 -84.5t52.5 -63.5t64 -43t72.5 -25t79.5 -8 q86 0 146.5 25t116.5 69l73 -92q-126 -123 -337 -123q-104 0 -193 38t-155 110.5t-104 184t-38 251.5z" />
<glyph unicode="D" d="M136 0v1129h241q61 0 113.5 -6.5t107.5 -23t99 -43t84 -70t67 -100.5t42.5 -137.5t15.5 -178.5t-16 -180t-43.5 -140t-67.5 -102.5t-84 -72t-96.5 -45t-101 -24t-102.5 -6.5h-259zM278 114h135q37 0 70 5.5t68 20t64 36.5t55.5 58t44.5 82.5t28.5 111t10.5 142.5 q0 82 -11.5 148.5t-29.5 112t-45.5 79t-56 53t-64.5 31t-67.5 15.5t-68.5 4h-133v-899z" />
<glyph unicode="E" d="M206 0v1129h641l-17 -118h-483v-381h419v-116h-419v-400h515v-114h-656z" />
<glyph unicode="F" d="M226 0v1129h665l-16 -118h-506v-395h442v-114h-442v-502h-143z" />
<glyph unicode="G" d="M74 566q0 113 25.5 209t70.5 163.5t105 115.5t129 70.5t143 22.5q106 0 178 -30t143 -95l-85 -88q-100 93 -236 93q-42 0 -80.5 -10t-75 -32t-66 -58.5t-52 -86.5t-35 -120t-12.5 -154q0 -242 74.5 -353t225.5 -111q118 0 215 54v342h-222l-16 120h380v-538 q-84 -48 -170.5 -73t-198.5 -25q-206 0 -323 148.5t-117 435.5z" />
<glyph unicode="H" d="M136 0v1129h142v-477h427v477h142v-1129h-142v536h-427v-536h-142z" />
<glyph unicode="I" d="M169 0v113h250v901h-250v115h645v-115h-250v-901h250v-113h-645z" />
<glyph unicode="J" d="M120 83l62 94q122 -77 244 -77q117 0 181.5 74.5t64.5 207.5v631h-334v116h476v-754q0 -60 -11 -114t-39 -106.5t-70.5 -90t-111 -61t-154.5 -23.5q-172 0 -308 103z" />
<glyph unicode="K" d="M172 0v1129h142v-1129h-142zM322 603l443 526h165l-440 -518l472 -611h-179z" />
<glyph unicode="L" d="M223 0v1129h141v-1003h516l-18 -126h-639z" />
<glyph unicode="M" d="M49 0l64 1129h198l183 -774l176 774h200l64 -1129h-138l-34 590q-10 156 -10 408l-190 -795h-143l-203 795q3 -32 3 -138q-1 -18 -1 -37q0 -138 -5 -233l-30 -590h-134z" />
<glyph unicode="N" d="M136 0v1129h194l404 -996q0 9 -5.5 80t-10 166t-4.5 185v565h133v-1129h-200l-398 991q0 -4 3 -44.5t5.5 -78t4.5 -90t4.5 -108.5t2.5 -104v-566h-133z" />
<glyph unicode="O" d="M77 562q0 128 26.5 235t77.5 185t130.5 121.5t179.5 43.5q134 0 228.5 -74t140.5 -204t46 -305q0 -173 -46 -303t-140.5 -204.5t-228.5 -74.5t-228 72.5t-140 202t-46 305.5zM225 562q0 -230 64.5 -345t201.5 -115q140 0 203.5 115t63.5 347q0 231 -63.5 347t-203.5 116 q-139 0 -202.5 -117t-63.5 -348z" />
<glyph unicode="P" d="M190 0v1129h287q208 0 322 -87t114 -260q0 -97 -32 -168t-91.5 -113t-137 -62t-175.5 -20h-146v-419h-141zM331 533h159q61 0 108 11.5t84.5 39t57.5 76.5t20 120q0 63 -20 109.5t-56.5 73.5t-83.5 40t-106 13h-163v-483z" />
<glyph unicode="Q" d="M74 562q0 172 46 302.5t141.5 206.5t229.5 76t229 -74t141.5 -204t46.5 -305q0 -93 -12.5 -169.5t-39.5 -144t-73 -119.5t-109 -87q120 -25 188 -85.5t109 -183.5l-150 -58q-28 69 -56.5 115.5t-68.5 82.5t-94.5 52.5t-126.5 16.5q-127 0 -218.5 72t-137 201.5 t-45.5 304.5zM223 562q0 -153 28.5 -254t88 -153.5t151.5 -52.5q140 0 203.5 115t63.5 347q0 231 -63.5 347t-203 116t-204 -117t-64.5 -348z" />
<glyph unicode="R" d="M167 0v1129h288q209 0 317 -80.5t108 -237.5q0 -121 -75.5 -200.5t-199.5 -110.5l336 -500h-171l-310 483h-152v-483h-141zM308 594h166q126 0 190.5 52t64.5 165q0 108 -62.5 155.5t-194.5 47.5h-164v-420z" />
<glyph unicode="S" d="M70 125l86 96q129 -121 313 -121q71 0 129 22t95 70.5t37 117.5q0 83 -51.5 130.5t-193.5 89.5q-90 26 -152.5 53.5t-112.5 66t-74 89.5t-24 116q0 128 101.5 210t262.5 82q210 0 361 -129l-85 -92q-116 101 -271 101q-99 0 -162 -43t-63 -124q0 -72 60.5 -116.5 t222.5 -91.5q48 -14 86 -28t78 -34.5t68.5 -46t51.5 -58.5t35 -76.5t12 -95.5q0 -149 -109.5 -240t-303.5 -91q-248 0 -397 143z" />
<glyph unicode="T" d="M66 1006v123h850l-15 -123h-341v-1006h-142v1006h-352z" />
<glyph unicode="U" d="M118 366v763h143v-768q0 -128 59 -192t170 -64q112 0 171.5 64t59.5 192v768h144v-763q0 -173 -102.5 -278.5t-272.5 -105.5q-173 0 -272.5 105t-99.5 279z" />
<glyph unicode="V" d="M41 1129h153l300 -967l305 967h143l-376 -1129h-148z" />
<glyph unicode="W" d="M8 1129h142l120 -973l136 842h174l130 -842l134 973h131l-170 -1129h-187l-130 852l-131 -852h-191z" />
<glyph unicode="X" d="M50 0l355 602l-325 527h164l247 -435l250 435h152l-319 -519l358 -610h-163l-281 510l-285 -510h-153z" />
<glyph unicode="Y" d="M38 1129h157l299 -567l304 567h148l-382 -693v-436h-145v434z" />
<glyph unicode="Z" d="M118 0v114l595 892h-536v123h688v-118l-591 -888h589l-16 -123h-729z" />
<glyph unicode="[" d="M302 -189v1524h411v-117h-280v-1290h280v-117h-411z" />
<glyph unicode="\" d="M87 1273l108 53l701 -1446l-111 -49z" />
<glyph unicode="]" d="M270 -72h280v1290h-280v117h412v-1524h-412v117z" />
<glyph unicode="^" d="M122 863l309 513h121l310 -513h-149l-223 389l-221 -389h-147z" />
<glyph unicode="_" d="M82 -177h819v-121h-819v121z" />
<glyph unicode="`" d="M302 1171l75 119l301 -196l-44 -75z" />
<glyph unicode="a" d="M113 247q0 133 104 205t299 72h128v70q0 92 -52 132t-153 40q-99 0 -225 -44l-37 105q154 55 283 55q158 0 240.5 -74t82.5 -205v-414q0 -51 16.5 -75t54.5 -36l-35 -98q-126 16 -157 123q-47 -59 -117 -90t-154 -31q-129 0 -203.5 72t-74.5 193zM261 249 q0 -164 165 -164q42 0 82.5 14.5t75.5 42.5t60 66v222h-125q-137 0 -197.5 -46.5t-60.5 -134.5z" />
<glyph unicode="b" d="M164 0v1210l138 17v-477q101 132 247 132q84 0 147 -32t101 -92t56.5 -141t18.5 -184q0 -133 -38.5 -233.5t-116.5 -159t-187 -58.5q-149 0 -235 108l-10 -90h-121zM302 205q34 -53 85.5 -82t110.5 -29q109 0 166.5 84.5t57.5 254.5q0 168 -51.5 252.5t-152.5 84.5 q-66 0 -121 -39t-95 -98v-428z" />
<glyph unicode="c" d="M149 428q0 130 47 232t140 162t219 60q168 0 289 -102l-67 -90q-114 75 -223 75q-117 0 -186.5 -86t-69.5 -251q0 -85 19 -148.5t54 -102.5t81 -58t103 -19q113 0 225 75l66 -90q-55 -48 -135 -75.5t-156 -27.5q-192 0 -299 120.5t-107 325.5z" />
<glyph unicode="d" d="M111 431q0 130 40 231.5t117 160.5t181 59q142 0 233 -104v449l137 -17v-1210h-121l-13 113q-93 -131 -244 -131q-111 0 -186 57t-109.5 156t-34.5 236zM261 431q0 -168 52.5 -253.5t155.5 -85.5q122 0 213 138v428q-36 54 -87 83t-110 29q-109 0 -166.5 -85t-57.5 -254z " />
<glyph unicode="e" d="M130 431q0 130 45 232t131 160.5t199 58.5q81 0 146.5 -30t111 -84.5t70 -134t24.5 -176.5q0 -37 -3 -74h-580q4 -142 74 -214t176 -72q64 0 117.5 18.5t113.5 58.5l64 -92q-60 -47 -138 -73.5t-157 -26.5q-186 0 -290 122t-104 327zM274 488h448q-2 137 -59 209t-157 72 q-99 0 -161.5 -71t-70.5 -210z" />
<glyph unicode="f" d="M154 686v110h205v172q0 117 89 188t226 71q125 0 234 -45l-45 -104q-81 36 -185 36q-180 0 -180 -143v-175h292l-15 -110h-277v-686h-139v686h-205z" />
<glyph unicode="g" d="M108 -87h125q0 -54 19 -84.5t72 -47.5t148 -17q140 0 206 35.5t66 106.5q0 40 -26 68.5t-69 42t-99 13.5h-153q-107 0 -163 46.5t-56 117.5q0 27 11 53.5t32.5 51.5t52.5 45q-74 38 -109 96t-35 142q0 132 95.5 216t248.5 84q63 0 114.5 3.5t86.5 9t72 16t59 19t60 24.5 l42 -130q-49 -16 -106.5 -20.5t-146.5 -4.5q151 -68 151 -217q0 -131 -87 -212.5t-237 -81.5q-76 0 -130 18q-19 -15 -31.5 -37.5t-12.5 -45.5q0 -74 114 -74h156q131 0 218 -66.5t87 -167.5q0 -126 -107 -194t-304 -68q-136 0 -216.5 29t-114 84.5t-33.5 146.5zM270 582 q0 -93 51.5 -147.5t153.5 -54.5q61 0 103.5 24t63.5 69.5t21 109.5q0 197 -191 197q-101 0 -151.5 -53.5t-50.5 -144.5z" />
<glyph unicode="h" d="M164 0v1209l138 15v-480q50 66 123.5 102t152.5 36q243 0 243 -256v-626h-138v624q0 77 -36 112.5t-114 35.5q-67 0 -129.5 -43t-101.5 -100v-629h-138z" />
<glyph unicode="i" d="M198 0v110h266v644h-258v109h396v-753h242v-110h-646zM394 1169.5q0 42.5 26.5 69.5t70.5 27q30 0 53.5 -12.5t36 -34.5t12.5 -49q0 -43 -28.5 -70t-73.5 -27q-44 0 -70.5 27t-26.5 69.5z" />
<glyph unicode="j" d="M158 -241q79 13 142.5 32.5t119 49.5t92.5 69.5t58 95t21 124.5v624h-358v109h496v-725q0 -107 -36.5 -189t-108.5 -140t-171 -95.5t-233 -60.5zM502 1169.5q0 42.5 27.5 69.5t72.5 27q29 0 52 -12.5t35.5 -34.5t12.5 -49q0 -21 -7.5 -39t-20 -31t-31.5 -20t-41 -7 q-45 0 -72.5 27t-27.5 69.5z" />
<glyph unicode="k" d="M174 0v1210l137 17v-1227h-137zM326 472l384 391h176l-386 -389l432 -474h-182z" />
<glyph unicode="l" d="M98 1101v109h404v-997q0 -116 142 -116q68 0 144 29l36 -100q-82 -44 -205 -44q-76 0 -133.5 28t-89.5 82t-32 127v882h-266z" />
<glyph unicode="m" d="M83 0v863h107l10 -101q39 57 82.5 88.5t103.5 31.5q122 0 156 -116q26 37 51.5 61t61 39.5t77.5 15.5q34 0 61.5 -10t52.5 -35t39 -74t14 -121v-642h-125v619q0 90 -12 122.5t-56 32.5q-85 0 -151 -104v-670h-127v619q0 90 -11.5 122.5t-55.5 32.5q-85 0 -151 -104v-670 h-127z" />
<glyph unicode="n" d="M164 0v863h118l12 -121q50 65 128 102.5t156 37.5q243 0 243 -256v-626h-138v524q0 58 -3 94.5t-11.5 68.5t-25 49t-42.5 26.5t-65 9.5q-48 0 -95.5 -22.5t-81 -54t-57.5 -68.5v-627h-138z" />
<glyph unicode="o" d="M120 431q0 100 24.5 182.5t71 142.5t117.5 93t160 33q178 0 274 -120.5t96 -328.5q0 -134 -42 -235t-127 -158.5t-203 -57.5q-178 0 -274.5 120.5t-96.5 328.5zM269 431q0 -171 55 -253.5t167.5 -82.5t167.5 83t55 255q0 336 -221 336q-112 0 -168 -83.5t-56 -254.5z" />
<glyph unicode="p" d="M164 -347v1210h118l12 -121q47 67 113 103.5t143 36.5q313 0 313 -449q0 -134 -35.5 -234t-111 -158.5t-185.5 -58.5q-141 0 -229 98v-411zM302 205q22 -34 53 -58t68 -37t77 -13q108 0 161 82.5t53 253.5q0 170 -47.5 253.5t-148.5 83.5q-66 0 -121 -39t-95 -98v-428z " />
<glyph unicode="q" d="M120 431q0 131 37 232t112.5 160t179.5 59q150 0 241 -113l12 94h117v-1210l-137 16v439q-91 -126 -244 -126q-318 0 -318 449zM269 431q0 -169 49 -251.5t149 -82.5q67 0 121.5 36.5t93.5 96.5v428q-35 54 -86.5 83t-112.5 29q-214 0 -214 -339z" />
<glyph unicode="r" d="M172 0v106h136v651h-136v106h239l27 -205q51 112 124 168t185 56q49 0 121 -19l-19 -293h-111v185h-9q-200 0 -283 -285v-364h175v-106h-449z" />
<glyph unicode="s" d="M122 98l76 91q113 -94 260 -94q99 0 156.5 37.5t57.5 100.5q0 31 -7 51.5t-28.5 41.5t-63 37.5t-109.5 33.5q-41 10 -73 19.5t-63.5 22.5t-55 27t-43.5 32.5t-33 40t-20 48.5t-7 59q0 107 90.5 171.5t237.5 64.5q181 0 314 -96l-62 -95q-55 38 -113.5 58.5t-135.5 20.5 q-187 0 -187 -113q0 -57 46 -86t182 -66q69 -19 116 -39t86.5 -50.5t58.5 -74t19 -102.5q0 -67 -30.5 -118t-82.5 -80.5t-115 -44t-135 -14.5q-202 0 -336 116z" />
<glyph unicode="t" d="M130 755v108h198v195l138 16v-211h299l-18 -108h-281v-513q0 -73 39 -109t125 -36q91 0 166 41l54 -94q-30 -19 -69 -33.5t-81 -21.5t-82 -7q-136 0 -213 71.5t-77 187.5v514h-198z" />
<glyph unicode="u" d="M164 236v627h138v-613q0 -83 35 -121.5t110 -38.5q46 0 92 19.5t82.5 50t60.5 68.5v635h137v-863h-117l-12 116q-51 -64 -125 -99t-152 -35q-124 0 -186.5 65.5t-62.5 188.5z" />
<glyph unicode="v" d="M98 863h148l248 -738l247 738h144l-315 -863h-159z" />
<glyph unicode="w" d="M30 863h139l111 -778l138 669h162l130 -669l111 778h133l-149 -863h-195l-113 633l-122 -633h-190z" />
<glyph unicode="x" d="M92 0l318 455l-280 408h164l199 -321l201 321h160l-280 -401l317 -462h-167l-238 370l-237 -370h-157z" />
<glyph unicode="y" d="M102 863h145l247 -758l245 758h143l-302 -868q-19 -56 -41 -101t-55 -88t-73 -73t-95 -51.5t-122 -28.5l-20 109q65 12 110.5 31.5t76 50.5t49.5 66.5t37 89.5h-45z" />
<glyph unicode="z" d="M167 0v105l479 637h-441v121h606v-108l-475 -637h480l-17 -118h-632z" />
<glyph unicode="{" d="M192 518v111q82 0 133.5 10.5t78 33.5t34 52.5t3.5 73.5l-35 315q-6 58 9.5 103.5t45.5 73.5t76 46t95 25.5t107 7.5v-110q-37 0 -68 -4t-58.5 -13t-45 -24t-26.5 -38t-7 -52l33 -336q7 -68 -8.5 -113.5t-51 -70t-93.5 -35.5q90 -17 127 -66.5t26 -153.5l-33 -336 q-2 -30 7 -53t26.5 -37.5t45 -23.5t58 -13t68.5 -4v-110q-58 0 -107 7t-94.5 25.5t-76 46.5t-46 73.5t-9.5 103.5l35 311q3 36 -0.5 61.5t-18.5 48t-43.5 36t-75 21t-111.5 7.5z" />
<glyph unicode="|" d="M430 -167v1489h122v-1489h-122z" />
<glyph unicode="}" d="M244 -113q48 0 84.5 6.5t66 20.5t43.5 40.5t11 63.5l-33 336q-7 72 8.5 116.5t54 68t107.5 33.5q-99 18 -140 69t-30 152l33 336q3 37 -11 63t-43.5 40.5t-66 21t-84.5 6.5v110q58 0 107.5 -7.5t95 -25.5t75.5 -46t45.5 -73.5t9.5 -103.5l-35 -315q-8 -87 47.5 -128.5 t201.5 -41.5v-111q-99 0 -156.5 -20.5t-77.5 -57.5t-15 -96l35 -311q6 -58 -9.5 -103.5t-45.5 -73.5t-75.5 -46.5t-95 -25.5t-107.5 -7v110z" />
<glyph unicode="~" d="M70 447q18 34 33 59t40 55.5t51 49.5t63 32.5t79 13.5q45 0 85.5 -17t68.5 -41t54 -48t53.5 -41t54.5 -17q87 0 162 140l99 -53q-14 -27 -27 -48t-31.5 -46.5t-39 -44t-46 -35t-56.5 -24.5t-66 -8q-43 0 -81.5 16.5t-67 41t-54.5 48.5t-55 41t-58 17q-49 0 -88 -37 t-74 -103z" />
<glyph unicode="&#xa0;" />
<glyph unicode="&#xa1;" d="M380 706q0 47 31.5 79.5t78.5 32.5q45 0 77.5 -32.5t32.5 -79.5q0 -45 -32.5 -76.5t-77.5 -31.5q-31 0 -56 14.5t-39.5 39t-14.5 54.5zM411 -322l20 748h118l21 -748h-159z" />
<glyph unicode="&#xa2;" d="M174 428q0 182 81 302t235 142v247h121v-245q110 -13 199 -84l-69 -92q-52 37 -96 52t-95 15q-109 0 -168.5 -84.5t-59.5 -252.5q0 -167 59.5 -247.5t168.5 -80.5q52 0 96.5 16.5t95.5 57.5l68 -99q-45 -38 -94.5 -58t-104.5 -27v-240h-123v240q-154 20 -234 135t-80 303 z" />
<glyph unicode="&#xa3;" d="M122 539v95h133v210q0 133 84.5 218t227.5 85q192 0 293 -143l-91 -70q-42 51 -89 73.5t-108 22.5q-87 0 -132 -50t-45 -148v-198h337v-95h-337v-203q0 -36 -4 -65.5t-14.5 -59t-31.5 -53t-51 -40.5h553l-17 -118h-707v111q24 8 43 17t32.5 20.5t23.5 22.5t16 27 t9.5 28.5t5 32.5t2 33.5t0.5 37.5v209h-133z" />
<glyph unicode="&#xa4;" d="M56 208l146 146q-58 92 -58 206q0 113 56 202l-144 149l90 88l144 -147q91 54 203 54q118 0 198 -54l147 146l89 -88l-142 -145q59 -90 59 -205q0 -111 -61 -208l144 -142l-89 -88l-148 144q-84 -53 -197 -53q-115 0 -201 53l-146 -146zM283 560q0 -112 54 -173t156 -61 t155.5 61t53.5 173q0 111 -54 173.5t-155.5 62.5t-155.5 -62.5t-54 -173.5z" />
<glyph unicode="&#xa5;" d="M64 1129h157l272 -519h7l274 519h145l-317 -563h194v-96h-232v-140h232v-97h-232v-233h-145v233h-229v97h229v140h-229v96h190z" />
<glyph unicode="&#xa6;" d="M430 -167v581h122v-581h-122zM430 741v581h122v-581h-122z" />
<glyph unicode="&#xa7;" d="M174 524q0 43 18.5 82.5t47.5 69.5t66 53q-96 72 -96 179q0 72 42 127t112 83.5t155 28.5t150 -22.5t124 -66.5l-66 -93q-53 35 -102 52t-115 17q-71 0 -113.5 -31.5t-42.5 -83.5q0 -56 39 -87.5t164 -74.5q136 -44 193.5 -99.5t57.5 -149.5q0 -33 -10 -64t-28.5 -57 t-41.5 -47t-51 -38q97 -72 97 -177q0 -110 -88 -174t-229 -64q-163 0 -280 88l65 94q52 -36 104.5 -53.5t119.5 -17.5q70 0 116.5 32t46.5 84q0 56 -40 87.5t-163 72.5q-69 23 -114.5 46t-77.5 52.5t-46 66t-14 85.5zM311 542q0 -65 44 -94.5t210 -89.5q17 -6 26 -9 q38 30 59.5 67.5t21.5 73.5q0 63 -45 92.5t-214 91.5q-14 5 -22 8q-38 -30 -59 -67t-21 -73z" />
<glyph unicode="&#xa8;" d="M231 1149q0 39 26 64t64 25t63.5 -25t25.5 -64q0 -37 -26 -62t-63.5 -25t-63.5 25t-26 62zM572 1149q0 39 25 64t63 25t64 -25t26 -64q0 -24 -12 -44t-32.5 -31.5t-45.5 -11.5t-45 11.5t-31.5 31.5t-11.5 44z" />
<glyph unicode="&#xa9;" d="M47 713q0 106 30.5 199t86 162.5t140.5 109.5t189 40q103 0 187.5 -40t139.5 -109.5t85 -162.5t30 -199q0 -84 -18.5 -160.5t-56 -139.5t-90 -109.5t-123.5 -72.5t-154 -26q-103 0 -188 40t-141 109t-86.5 161.5t-30.5 197.5zM139 713q0 -90 22.5 -166.5t65 -134.5 t111 -91t155.5 -33q86 0 154 33t111 91t65.5 134.5t22.5 166.5t-22.5 167t-65.5 136t-111 92.5t-154 33.5q-87 0 -155.5 -33.5t-111 -92.5t-65 -136t-22.5 -167zM233 714q0 74 21.5 134t58.5 98t84.5 58t100.5 20q62 0 104.5 -15t88.5 -49l-58 -77q-63 49 -128 49 q-70 0 -112.5 -53t-42.5 -165q0 -53 11.5 -93.5t32 -66t48.5 -38.5t63 -13q79 0 141 57l53 -78q-86 -77 -199 -77q-47 0 -88 13t-73.5 38.5t-56.5 62.5t-36.5 86.5t-12.5 108.5z" />
<glyph unicode="&#xaa;" d="M167 721q0 107 93.5 166t261.5 59h97v47q0 129 -162 129q-91 0 -199 -40l-39 96q131 49 256 49q135 0 203.5 -60t68.5 -169v-323q0 -36 13.5 -55.5t42.5 -28.5l-31 -88q-104 13 -136 97q-40 -46 -98.5 -71.5t-121.5 -25.5q-112 0 -180.5 60t-68.5 158zM174 0v123h642 v-123h-642zM306 727q0 -62 36.5 -93.5t104.5 -31.5q33 0 64.5 10.5t59 31t48.5 49.5v159h-95q-218 0 -218 -125z" />
<glyph unicode="&#xab;" d="M134 431v100l288 341l84 -53l-223 -337l223 -340l-84 -52zM474 431v100l289 341l84 -53l-223 -337l223 -340l-84 -52z" />
<glyph unicode="&#xac;" d="M190 452v118h603v-351h-126v233h-477z" />
<glyph unicode="&#xad;" d="M236 454v118h511v-118h-511z" />
<glyph unicode="&#xae;" d="M75 806q0 85 33 162.5t89 133.5t133 89t161 33q113 0 208.5 -56t151 -152.5t55.5 -209.5t-55.5 -209t-151 -151t-208.5 -55t-208.5 55t-151.5 151t-56 209zM162 806q0 -142 94 -239.5t235 -97.5t234.5 97.5t93.5 239.5q0 69 -25 132t-68 109t-104 73t-131 27 q-92 0 -168 -46t-118.5 -124t-42.5 -171zM330 580v462h139q200 0 200 -140q0 -49 -30 -81.5t-81 -46.5l141 -194h-108l-122 178h-48v-178h-91zM421 829h53q100 0 100 73q0 68 -104 68h-49v-141z" />
<glyph unicode="&#xaf;" d="M270 1107v106h441v-106h-441z" />
<glyph unicode="&#xb0;" d="M106 971q0 79 39 138.5t99 88.5t129.5 29t129 -29t98 -89t38.5 -139t-38.5 -138.5t-98 -88.5t-129 -29t-129.5 29t-99 89t-39 139zM228 971q0 -77 42.5 -118.5t103.5 -41.5t103 41t42 117.5t-42.5 118t-102.5 41.5q-61 0 -103.5 -40.5t-42.5 -117.5z" />
<glyph unicode="&#xb1;" d="M190 0v120h603v-120h-603zM190 521v117h236v244h131v-244h236v-117h-236v-254h-131v254h-236z" />
<glyph unicode="&#xb2;" d="M252 937q100 115 242 115q103 0 161 -48t58 -126q0 -39 -13.5 -70t-48.5 -62t-84 -60.5t-131 -69.5h293l-15 -100h-453v87l1 1q118 72 164.5 101t93 64.5t57.5 56t11 48.5q0 36 -25.5 57t-71.5 21q-90 0 -155 -78z" />
<glyph unicode="&#xb3;" d="M241 602l75 63q72 -65 177 -65q62 0 93.5 20t31.5 55q0 41 -29.5 59t-88.5 18h-76l12 70h57q105 0 105 68q0 72 -101 72q-88 0 -171 -63l-65 67q105 86 244 86q99 0 156 -39.5t57 -106.5q0 -46 -26.5 -73t-89.5 -37q72 -11 105.5 -39t33.5 -85q0 -75 -67 -120.5 t-186 -45.5q-154 0 -247 96z" />
<glyph unicode="&#xb4;" d="M306 1122l323 184l62 -118l-342 -139z" />
<glyph unicode="&#xb5;" d="M144 -347v1210h138v-485q0 -57 2.5 -95t11 -75t24.5 -58t42.5 -34t65.5 -13q135 0 227 130v630h138v-588q0 -128 45 -275l-130 -20q-12 22 -23.5 65t-15.5 75q-38 -62 -102 -101t-129 -39q-45 0 -75 8.5t-52 26t-44 49.5q15 -107 15 -144v-251z" />
<glyph unicode="&#xb6;" d="M70 798q0 70 27 129.5t78 104.5t131 71t180 26h425v-1459l-126 -17v1361h-183v-1344l-127 -17v821q-79 0 -145 16t-113.5 45.5t-80.5 70t-49.5 89t-16.5 103.5z" />
<glyph unicode="&#xb7;" d="M346 560q0 60 41.5 101.5t102.5 41.5q62 0 103 -41.5t41 -101.5q0 -62 -41 -104t-103 -42q-61 0 -102.5 42.5t-41.5 103.5z" />
<glyph unicode="&#xb8;" d="M305 -350l44 78q51 -26 109 -26q99 0 99 67q0 42 -34.5 57t-106.5 15l14 185h94v-120q75 -6 114 -45t39 -91q0 -77 -58 -118.5t-142 -41.5q-105 0 -172 40z" />
<glyph unicode="&#xb9;" d="M382 902l237 140h94v-526h-117v392l-157 -86z" />
<glyph unicode="&#xba;" d="M158 866q0 161 91.5 261t241.5 100q153 0 243 -98t90 -263q0 -161 -91.5 -262t-241.5 -101q-152 0 -242.5 99.5t-90.5 263.5zM170 0v123h644v-123h-644zM295 866q0 -65 14 -114t39.5 -80.5t61.5 -46.5t81 -15q93 0 144 63.5t51 192.5q0 86 -24 144t-67 85t-104 27 q-92 0 -144 -64t-52 -192z" />
<glyph unicode="&#xbb;" d="M134 142l221 340l-221 337l84 53l288 -341v-100l-288 -341zM474 142l220 340l-220 337l83 53l290 -341v-100l-290 -341z" />
<glyph unicode="&#xbc;" d="M-3 990l237 139h94v-526h-117v391l-157 -84zM23 390l876 420l50 -89l-875 -419zM483 92v78l222 372l101 -40l-188 -313h157l10 141h109v-141h91v-97h-91v-92h-119v92h-292z" />
<glyph unicode="&#xbd;" d="M-8 990l238 139h92v-526h-116v391l-157 -84zM16 390l877 420l49 -89l-875 -419zM513 421q100 115 244 115q102 0 160 -48t58 -126q0 -76 -59 -129.5t-218 -132.5h292l-13 -100h-455v87q6 4 17 11q112 68 156 95.5t88.5 61.5t55 54.5t10.5 47.5q0 37 -26 58t-71 21 q-91 0 -156 -79z" />
<glyph unicode="&#xbe;" d="M-5 688l75 64q73 -66 177 -66q62 0 93.5 20t31.5 56q0 41 -29.5 59t-88.5 18h-76l12 71h57q105 0 105 67q0 72 -102 72q-88 0 -170 -63l-66 68q105 84 245 84q99 0 156 -39t57 -106q0 -46 -26.5 -72.5t-90.5 -37.5q73 -11 106 -39t33 -86q0 -75 -66.5 -120t-185.5 -45 q-154 0 -247 95zM38 390l876 420l49 -89l-874 -419zM485 92v78l223 372l100 -40l-189 -313h159l10 141h108v-141h92v-97h-92v-92h-118v92h-293z" />
<glyph unicode="&#xbf;" d="M172 -94q0 47 12.5 85.5t33.5 64t47.5 49.5t54 41.5t54 40.5t47.5 46.5t33.5 59t12.5 77.5v56h139v-62q0 -54 -16 -99t-41.5 -75t-57 -56t-62.5 -49t-56.5 -46.5t-42 -55t-16.5 -68.5q0 -69 54.5 -108.5t139.5 -39.5q62 0 123 30.5t110 91.5l98 -74q-139 -162 -345 -162 q-73 0 -134.5 21.5t-102 57t-63 81t-22.5 93.5zM421 706q0 31 14.5 56.5t39.5 40.5t56 15q46 0 78 -32.5t32 -79.5q0 -29 -14.5 -54t-40 -39.5t-55.5 -14.5q-47 0 -78.5 31.5t-31.5 76.5z" />
<glyph unicode="&#xc0;" d="M33 0l369 1129h180l367 -1129h-148l-90 288h-447l-90 -288h-141zM302 406h372l-186 602zM303 1371l75 119l304 -178l-43 -75z" />
<glyph unicode="&#xc1;" d="M33 0l369 1129h180l367 -1129h-148l-90 288h-447l-90 -288h-141zM302 406h372l-186 602zM303 1312l324 172l61 -118l-349 -129z" />
<glyph unicode="&#xc2;" d="M33 0l369 1129h180l367 -1129h-148l-90 288h-447l-90 -288h-141zM225 1316l221 175h93l219 -175l-60 -71l-207 133l-205 -133zM302 406h372l-186 602z" />
<glyph unicode="&#xc3;" d="M33 0l369 1129h180l367 -1129h-148l-90 288h-447l-90 -288h-141zM223 1321q31 63 74.5 101t99.5 38q31 0 59.5 -12.5t46.5 -28t40.5 -28t42.5 -12.5q24 0 44.5 18t43.5 57l88 -45q-62 -135 -176 -135q-23 0 -46 8.5t-40.5 20t-34.5 23t-34.5 20t-33.5 8.5 q-18 0 -33.5 -9.5t-27.5 -25t-26 -41.5zM302 406h372l-186 602z" />
<glyph unicode="&#xc4;" d="M33 0l369 1129h180l367 -1129h-148l-90 288h-447l-90 -288h-141zM231 1343q0 20 7 36.5t19 28.5t28.5 19t35.5 7q38 0 63.5 -25.5t25.5 -65.5q0 -36 -25.5 -61t-63.5 -25t-64 25t-26 61zM302 406h372l-186 602zM572 1343q0 20 6.5 36.5t18.5 28.5t28 19t35 7 q25 0 45.5 -11.5t32.5 -32.5t12 -47q0 -24 -12 -44t-32.5 -31t-45.5 -11q-38 0 -63 24.5t-25 61.5z" />
<glyph unicode="&#xc5;" d="M33 0l369 1129h180l367 -1129h-148l-90 288h-447l-90 -288h-141zM302 406h372l-186 602zM310 1376q0 71 51 120t130 49t131 -49t52 -120t-52 -119t-131 -48t-130 48t-51 119zM403 1376q0 -44 23.5 -68.5t64.5 -24.5q21 0 37.5 6.5t28 18t17.5 29t6 39.5q0 43 -23.5 67.5 t-65.5 24.5q-27 0 -47 -11t-30.5 -31.5t-10.5 -49.5z" />
<glyph unicode="&#xc6;" d="M-20 0l331 1129h616l-16 -116h-387l84 -383h305v-116h-284l85 -398h280v-116h-394l-59 286h-335l-80 -286h-146zM242 406h272l-119 610z" />
<glyph unicode="&#xc7;" d="M103 566q0 138 39 250t105.5 183.5t153.5 109.5t185 38q72 0 131 -13.5t104.5 -36.5t92.5 -60l-80 -93q-99 83 -238 83q-47 0 -89 -10.5t-81.5 -32.5t-70.5 -59t-54.5 -87t-36 -119t-12.5 -153q0 -71 9 -131.5t25 -107.5t39.5 -84.5t52.5 -63.5t64 -43t72.5 -25t79.5 -8 q86 0 146.5 25t116.5 69l73 -92q-121 -119 -324 -123v-76q76 -6 114 -44.5t38 -91.5q0 -77 -57.5 -118.5t-142.5 -41.5q-105 0 -172 40l45 78q52 -26 110 -26q98 0 98 67q0 42 -34 57t-107 15l10 148q-88 14 -161.5 58.5t-128 116t-85 174.5t-30.5 228z" />
<glyph unicode="&#xc8;" d="M206 0v1129h641l-17 -118h-483v-381h419v-116h-419v-400h515v-114h-656zM338 1371l75 119l303 -178l-42 -75z" />
<glyph unicode="&#xc9;" d="M206 0v1129h641l-17 -118h-483v-381h419v-116h-419v-400h515v-114h-656zM338 1312l324 172l60 -118l-348 -129z" />
<glyph unicode="&#xca;" d="M206 0v1129h641l-17 -118h-483v-381h419v-116h-419v-400h515v-114h-656zM259 1316l221 175h94l219 -175l-61 -71l-206 133l-205 -133z" />
<glyph unicode="&#xcb;" d="M206 0v1129h641l-17 -118h-483v-381h419v-116h-419v-400h515v-114h-656zM266 1343q0 26 11.5 47t32 32.5t45.5 11.5q38 0 63.5 -25.5t25.5 -65.5q0 -36 -25.5 -61t-63.5 -25t-63.5 25t-25.5 61zM606 1343q0 20 7 36.5t18.5 28.5t28 19t34.5 7q39 0 65 -26t26 -65 q0 -36 -26.5 -61t-64.5 -25q-37 0 -62.5 24.5t-25.5 61.5z" />
<glyph unicode="&#xcc;" d="M169 0v113h250v901h-250v115h645v-115h-250v-901h250v-113h-645zM303 1371l75 119l304 -178l-43 -75z" />
<glyph unicode="&#xcd;" d="M169 0v113h250v901h-250v115h645v-115h-250v-901h250v-113h-645zM303 1312l324 172l61 -118l-349 -129z" />
<glyph unicode="&#xce;" d="M169 0v113h250v901h-250v115h645v-115h-250v-901h250v-113h-645zM225 1316l221 175h93l219 -175l-60 -71l-207 133l-205 -133z" />
<glyph unicode="&#xcf;" d="M169 0v113h250v901h-250v115h645v-115h-250v-901h250v-113h-645zM231 1343q0 20 7 36.5t19 28.5t28.5 19t35.5 7q38 0 63.5 -25.5t25.5 -65.5q0 -36 -25.5 -61t-63.5 -25t-64 25t-26 61zM572 1343q0 20 6.5 36.5t18.5 28.5t28 19t35 7q25 0 45.5 -11.5t32.5 -32.5t12 -47 q0 -24 -12 -44t-32.5 -31t-45.5 -11q-38 0 -63 24.5t-25 61.5z" />
<glyph unicode="&#xd0;" d="M33 524v109h119v496h242q60 0 112 -6.5t107 -23t99 -43t84 -70t67 -100.5t42.5 -137.5t15.5 -178.5t-16.5 -180t-43.5 -140t-67 -102.5t-83.5 -72t-96 -45t-101 -24t-102.5 -6.5h-259v524h-119zM295 114h135q43 0 81.5 8.5t78.5 27t71.5 53t56.5 83.5t38.5 121.5 t13.5 162.5q0 82 -11 148.5t-29 112t-46 79t-56.5 53t-64.5 31t-67 15.5t-68 4h-133v-380h259v-109h-259v-410z" />
<glyph unicode="&#xd1;" d="M136 0v1129h194l404 -996q0 9 -5.5 80t-10 166t-4.5 185v565h133v-1129h-200l-398 991q0 -4 3 -44.5t5.5 -78t5 -90t4.5 -108.5t2 -104v-566h-133zM219 1321q31 63 75 101t100 38q31 0 59.5 -12.5t46.5 -28t40.5 -28t42.5 -12.5q24 0 44.5 18t42.5 57l88 -45 q-62 -135 -175 -135q-28 0 -56.5 12.5t-47.5 27.5t-42.5 27.5t-42.5 12.5q-14 0 -26 -5t-22.5 -15.5t-19.5 -23.5t-20 -32z" />
<glyph unicode="&#xd2;" d="M77 562q0 128 26.5 235t77.5 185t130.5 121.5t179.5 43.5q134 0 228.5 -74t140.5 -204t46 -305q0 -173 -46 -303t-140.5 -204.5t-228.5 -74.5t-228 72.5t-140 202t-46 305.5zM225 562q0 -230 64.5 -345t201.5 -115q140 0 203.5 115t63.5 347q0 231 -63.5 347t-203.5 116 q-139 0 -202.5 -117t-63.5 -348zM303 1371l75 119l304 -178l-43 -75z" />
<glyph unicode="&#xd3;" d="M77 562q0 128 26.5 235t77.5 185t130.5 121.5t179.5 43.5q134 0 228.5 -74t140.5 -204t46 -305q0 -173 -46 -303t-140.5 -204.5t-228.5 -74.5t-228 72.5t-140 202t-46 305.5zM225 562q0 -230 64.5 -345t201.5 -115q140 0 203.5 115t63.5 347q0 231 -63.5 347t-203.5 116 q-139 0 -202.5 -117t-63.5 -348zM303 1312l324 172l61 -118l-349 -129z" />
<glyph unicode="&#xd4;" d="M77 562q0 128 26.5 235t77.5 185t130.5 121.5t179.5 43.5q134 0 228.5 -74t140.5 -204t46 -305q0 -173 -46 -303t-140.5 -204.5t-228.5 -74.5t-228 72.5t-140 202t-46 305.5zM225 562q0 -230 64.5 -345t201.5 -115q140 0 203.5 115t63.5 347q0 231 -63.5 347t-203.5 116 q-139 0 -202.5 -117t-63.5 -348zM225 1316l221 175h93l219 -175l-60 -71l-207 133l-205 -133z" />
<glyph unicode="&#xd5;" d="M77 562q0 128 26.5 235t77.5 185t130.5 121.5t179.5 43.5q134 0 228.5 -74t140.5 -204t46 -305q0 -173 -46 -303t-140.5 -204.5t-228.5 -74.5t-228 72.5t-140 202t-46 305.5zM223 1321q31 63 74.5 101t99.5 38q31 0 59.5 -12.5t46.5 -28t40.5 -28t42.5 -12.5 q24 0 44.5 18t43.5 57l88 -45q-62 -135 -176 -135q-23 0 -46 8.5t-40.5 20t-34.5 23t-34.5 20t-33.5 8.5q-18 0 -33.5 -9.5t-27.5 -25t-26 -41.5zM225 562q0 -230 64.5 -345t201.5 -115q140 0 203.5 115t63.5 347q0 231 -63.5 347t-203.5 116q-139 0 -202.5 -117t-63.5 -348 z" />
<glyph unicode="&#xd6;" d="M77 562q0 128 26.5 235t77.5 185t130.5 121.5t179.5 43.5q134 0 228.5 -74t140.5 -204t46 -305q0 -173 -46 -303t-140.5 -204.5t-228.5 -74.5t-228 72.5t-140 202t-46 305.5zM225 562q0 -230 64.5 -345t201.5 -115q140 0 203.5 115t63.5 347q0 231 -63.5 347t-203.5 116 q-139 0 -202.5 -117t-63.5 -348zM231 1343q0 20 7 36.5t19 28.5t28.5 19t35.5 7q38 0 63.5 -25.5t25.5 -65.5q0 -36 -25.5 -61t-63.5 -25t-64 25t-26 61zM572 1343q0 20 6.5 36.5t18.5 28.5t28 19t35 7q25 0 45.5 -11.5t32.5 -32.5t12 -47q0 -24 -12 -44t-32.5 -31 t-45.5 -11q-38 0 -63 24.5t-25 61.5z" />
<glyph unicode="&#xd7;" d="M205 302l201 201l-201 202l85 86l201 -203l202 203l85 -86l-201 -202l201 -201l-85 -86l-202 202l-201 -202z" />
<glyph unicode="&#xd8;" d="M77 562q0 128 26.5 235t77.5 185t130.5 121.5t179.5 43.5q52 0 107 -13l52 182l124 -33l-63 -203q96 -69 145.5 -202.5t49.5 -313.5q0 -173 -46 -303t-140.5 -204.5t-228.5 -74.5q-56 0 -103 12l-54 -174l-123 31l63 195q-98 69 -147.5 201.5t-49.5 314.5zM226 562 q0 -156 24 -253.5t75 -147.5l247 857q-37 9 -81 9q-70 0 -121 -30t-82.5 -90.5t-46.5 -145.5t-15 -199zM411 111q37 -9 80 -9q139 0 202.5 115.5t63.5 346.5q0 106 -10.5 183.5t-32 132t-56.5 88.5z" />
<glyph unicode="&#xd9;" d="M118 366v763h143v-768q0 -128 59 -192t170 -64q112 0 171.5 64t59.5 192v768h144v-763q0 -173 -102.5 -278.5t-272.5 -105.5q-173 0 -272.5 105t-99.5 279zM303 1371l75 119l304 -178l-43 -75z" />
<glyph unicode="&#xda;" d="M118 366v763h143v-768q0 -128 59 -192t170 -64q112 0 171.5 64t59.5 192v768h144v-763q0 -173 -102.5 -278.5t-272.5 -105.5q-173 0 -272.5 105t-99.5 279zM303 1312l324 172l61 -118l-349 -129z" />
<glyph unicode="&#xdb;" d="M118 366v763h143v-768q0 -128 59 -192t170 -64q112 0 171.5 64t59.5 192v768h144v-763q0 -173 -102.5 -278.5t-272.5 -105.5q-173 0 -272.5 105t-99.5 279zM225 1316l221 175h93l219 -175l-60 -71l-207 133l-205 -133z" />
<glyph unicode="&#xdc;" d="M118 366v763h143v-768q0 -128 59 -192t170 -64q112 0 171.5 64t59.5 192v768h144v-763q0 -173 -102.5 -278.5t-272.5 -105.5q-173 0 -272.5 105t-99.5 279zM231 1343q0 20 7 36.5t19 28.5t28.5 19t35.5 7q38 0 63.5 -25.5t25.5 -65.5q0 -36 -25.5 -61t-63.5 -25t-64 25 t-26 61zM572 1343q0 20 6.5 36.5t18.5 28.5t28 19t35 7q25 0 45.5 -11.5t32.5 -32.5t12 -47q0 -24 -12 -44t-32.5 -31t-45.5 -11q-38 0 -63 24.5t-25 61.5z" />
<glyph unicode="&#xdd;" d="M38 1129h157l299 -567l304 567h148l-382 -693v-436h-145v434zM308 1312l325 172l60 -118l-349 -129z" />
<glyph unicode="&#xde;" d="M175 0v1129h143v-192h160q209 0 321 -88t112 -267q0 -97 -31.5 -169.5t-90.5 -116.5t-136.5 -65t-174.5 -21h-160v-210h-143zM318 325h179q61 0 107 12t82.5 40t55 78.5t18.5 122.5q0 127 -69.5 186.5t-193.5 59.5h-179v-499z" />
<glyph unicode="&#xdf;" d="M158 0v874q0 172 86.5 262.5t241.5 90.5q84 0 149 -29.5t101 -83.5t36 -123q0 -44 -19.5 -80.5t-47 -61t-55 -46.5t-46.5 -47t-19 -53q0 -25 14 -48t37 -40.5t53 -38t61 -39t60.5 -45t52.5 -56t37 -71.5t14 -91q0 -92 -42.5 -159.5t-110.5 -100t-151 -32.5 q-124 0 -213 56l57 95q62 -39 142 -39q84 0 131 43.5t47 129.5q0 43 -18 78t-47 60t-63.5 47.5t-69 45.5t-63 48t-46.5 61t-18 79q0 32 10.5 59t27 46.5t37 37t41 33.5t37 32.5t27 38t10.5 45.5t-8 47t-24.5 44.5t-48 35t-73.5 13.5q-38 0 -67.5 -8.5t-52.5 -26t-38.5 -45 t-23.5 -66t-8 -89.5v-883h-137z" />
<glyph unicode="&#xe0;" d="M113 247q0 133 104 205t299 72h128v70q0 92 -52 132t-153 40q-99 0 -225 -44l-37 105q154 55 283 55q158 0 240.5 -74t82.5 -205v-414q0 -51 16.5 -75t54.5 -36l-35 -98q-126 16 -157 123q-47 -59 -117 -90t-154 -31q-129 0 -203.5 72t-74.5 193zM261 249 q0 -164 165 -164q42 0 82.5 14.5t75.5 42.5t60 66v222h-125q-137 0 -197.5 -46.5t-60.5 -134.5zM288 1171l76 119l301 -196l-44 -75z" />
<glyph unicode="&#xe1;" d="M113 247q0 133 104 205t299 72h128v70q0 92 -52 132t-153 40q-99 0 -225 -44l-37 105q154 55 283 55q158 0 240.5 -74t82.5 -205v-414q0 -51 16.5 -75t54.5 -36l-35 -98q-126 16 -157 123q-47 -59 -117 -90t-154 -31q-129 0 -203.5 72t-74.5 193zM261 249 q0 -164 165 -164q42 0 82.5 14.5t75.5 42.5t60 66v222h-125q-137 0 -197.5 -46.5t-60.5 -134.5zM294 1122l322 184l62 -118l-342 -139z" />
<glyph unicode="&#xe2;" d="M113 247q0 133 104 205t299 72h128v70q0 92 -52 132t-153 40q-99 0 -225 -44l-37 105q154 55 283 55q158 0 240.5 -74t82.5 -205v-414q0 -51 16.5 -75t54.5 -36l-35 -98q-126 16 -157 123q-47 -59 -117 -90t-154 -31q-129 0 -203.5 72t-74.5 193zM211 1098l222 195h93 l220 -195l-63 -68l-203 150l-203 -150zM261 249q0 -164 165 -164q42 0 82.5 14.5t75.5 42.5t60 66v222h-125q-137 0 -197.5 -46.5t-60.5 -134.5z" />
<glyph unicode="&#xe3;" d="M113 247q0 133 104 205t299 72h128v70q0 92 -52 132t-153 40q-99 0 -225 -44l-37 105q154 55 283 55q158 0 240.5 -74t82.5 -205v-414q0 -51 16.5 -75t54.5 -36l-35 -98q-126 16 -157 123q-47 -59 -117 -90t-154 -31q-129 0 -203.5 72t-74.5 193zM210 1126q19 41 43.5 71 t58 49t71.5 19q31 0 60 -12.5t47 -27.5t41 -27.5t43 -12.5q24 0 43.5 17t42.5 56l89 -44q-62 -134 -175 -134q-29 0 -57.5 12.5t-47.5 27t-42.5 26.5t-43.5 12q-27 0 -46 -17.5t-40 -57.5zM261 249q0 -164 165 -164q42 0 82.5 14.5t75.5 42.5t60 66v222h-125 q-137 0 -197.5 -46.5t-60.5 -134.5z" />
<glyph unicode="&#xe4;" d="M113 247q0 133 104 205t299 72h128v70q0 92 -52 132t-153 40q-99 0 -225 -44l-37 105q154 55 283 55q158 0 240.5 -74t82.5 -205v-414q0 -51 16.5 -75t54.5 -36l-35 -98q-126 16 -157 123q-47 -59 -117 -90t-154 -31q-129 0 -203.5 72t-74.5 193zM218 1149q0 39 26 64 t64 25t63.5 -25t25.5 -64q0 -37 -25.5 -62t-63.5 -25t-64 25t-26 62zM261 249q0 -164 165 -164q42 0 82.5 14.5t75.5 42.5t60 66v222h-125q-137 0 -197.5 -46.5t-60.5 -134.5zM558 1149q0 39 25.5 64t64 25t64.5 -25t26 -64q0 -18 -7.5 -34.5t-19.5 -28t-28.5 -18 t-35.5 -6.5q-37 0 -63 25t-26 62z" />
<glyph unicode="&#xe5;" d="M113 247q0 133 104 205t299 72h128v70q0 92 -52 132t-153 40q-99 0 -225 -44l-37 105q154 55 283 55q158 0 240.5 -74t82.5 -205v-414q0 -51 16.5 -75t54.5 -36l-35 -98q-126 16 -157 123q-47 -59 -117 -90t-154 -31q-129 0 -203.5 72t-74.5 193zM261 249 q0 -164 165 -164q42 0 82.5 14.5t75.5 42.5t60 66v222h-125q-137 0 -197.5 -46.5t-60.5 -134.5zM297 1182q0 71 51.5 119.5t130 48.5t130 -48.5t51.5 -119.5t-51.5 -119.5t-130.5 -48.5t-130 48.5t-51 119.5zM390 1182q0 -44 23.5 -69t64.5 -25q42 0 65.5 24.5t23.5 69.5 q0 43 -23.5 67t-65.5 24q-41 0 -64.5 -24.5t-23.5 -66.5z" />
<glyph unicode="&#xe6;" d="M-10 247q0 135 89.5 206t261.5 71h75v70q0 172 -149 172q-29 0 -55.5 -4.5t-52 -13.5t-64.5 -26l-36 104q117 56 221 56q92 0 145.5 -37t80.5 -107q23 67 76 105.5t131 38.5q143 0 212 -110.5t69 -314.5q0 -35 -3 -75h-441q11 -149 55 -217t131 -68q44 0 80 15.5t82 49.5 l64 -95q-54 -42 -108.5 -63.5t-121.5 -21.5q-160 0 -242 146q-59 -79 -115 -112.5t-136 -33.5q-114 0 -181.5 72t-67.5 193zM139 255q0 -81 32.5 -124.5t89.5 -43.5q51 0 91 37.5t87 121.5q-23 76 -23 184h-69q-113 0 -160.5 -45t-47.5 -130zM550 490h310q-3 140 -37 208 t-115 68q-75 0 -111.5 -62.5t-46.5 -213.5z" />
<glyph unicode="&#xe7;" d="M149 428q0 130 47 232t140 162t219 60q168 0 289 -102l-67 -90q-114 75 -223 75q-117 0 -186.5 -86t-69.5 -251q0 -85 19 -148.5t54 -102.5t81 -58t103 -19q113 0 225 75l66 -90q-49 -43 -118.5 -70t-139.5 -33v-76q75 -6 114 -45t39 -91q0 -77 -58 -118.5t-142 -41.5 q-105 0 -172 40l44 78q51 -26 109 -26q99 0 99 67q0 42 -34.5 57t-106.5 15l10 145q-108 13 -185 71t-116.5 153t-39.5 218z" />
<glyph unicode="&#xe8;" d="M130 431q0 130 45 232t131 160.5t199 58.5q81 0 146.5 -30t111 -84.5t70 -134t24.5 -176.5q0 -37 -3 -74h-580q4 -142 74 -214t176 -72q64 0 117.5 18.5t113.5 58.5l64 -92q-60 -47 -138 -73.5t-157 -26.5q-186 0 -290 122t-104 327zM274 488h448q-2 137 -59 209t-157 72 q-99 0 -161.5 -71t-70.5 -210zM318 1171l76 119l300 -196l-44 -75z" />
<glyph unicode="&#xe9;" d="M130 431q0 130 45 232t131 160.5t199 58.5q81 0 146.5 -30t111 -84.5t70 -134t24.5 -176.5q0 -37 -3 -74h-580q4 -142 74 -214t176 -72q64 0 117.5 18.5t113.5 58.5l64 -92q-60 -47 -138 -73.5t-157 -26.5q-186 0 -290 122t-104 327zM274 488h448q-2 137 -59 209t-157 72 q-99 0 -161.5 -71t-70.5 -210zM322 1122l324 184l62 -118l-342 -139z" />
<glyph unicode="&#xea;" d="M130 431q0 130 45 232t131 160.5t199 58.5q81 0 146.5 -30t111 -84.5t70 -134t24.5 -176.5q0 -37 -3 -74h-580q4 -142 74 -214t176 -72q64 0 117.5 18.5t113.5 58.5l64 -92q-60 -47 -138 -73.5t-157 -26.5q-186 0 -290 122t-104 327zM241 1098l221 195h93l220 -195 l-62 -68l-203 150l-204 -150zM274 488h448q-2 137 -59 209t-157 72q-99 0 -161.5 -71t-70.5 -210z" />
<glyph unicode="&#xeb;" d="M130 431q0 130 45 232t131 160.5t199 58.5q81 0 146.5 -30t111 -84.5t70 -134t24.5 -176.5q0 -37 -3 -74h-580q4 -142 74 -214t176 -72q64 0 117.5 18.5t113.5 58.5l64 -92q-60 -47 -138 -73.5t-157 -26.5q-186 0 -290 122t-104 327zM247 1149q0 39 26 64t65 25 q38 0 63 -25t25 -64q0 -37 -25.5 -62t-62.5 -25q-38 0 -64.5 25t-26.5 62zM274 488h448q-2 137 -59 209t-157 72q-99 0 -161.5 -71t-70.5 -210zM588 1149q0 26 11.5 46.5t32 31.5t45.5 11q19 0 35.5 -6.5t28.5 -18t18.5 -28.5t6.5 -36q0 -37 -25.5 -62t-63.5 -25 q-25 0 -45.5 11.5t-32 31.5t-11.5 44z" />
<glyph unicode="&#xec;" d="M198 0v110h266v644h-258v109h396v-753h242v-110h-646zM303 1171l75 119l302 -196l-44 -75z" />
<glyph unicode="&#xed;" d="M198 0v110h266v644h-258v109h396v-753h242v-110h-646zM308 1122l322 184l63 -118l-343 -139z" />
<glyph unicode="&#xee;" d="M198 0v110h266v644h-258v109h396v-753h242v-110h-646zM226 1098l221 195h94l219 -195l-62 -68l-204 150l-202 -150z" />
<glyph unicode="&#xef;" d="M198 0v110h266v644h-258v109h396v-753h242v-110h-646zM233 1149q0 39 25.5 64t63.5 25q19 0 35.5 -6.5t28.5 -18t18.5 -28.5t6.5 -36q0 -37 -25.5 -62t-63 -25t-63.5 25t-26 62zM574 1149q0 39 25 64t63 25t64 -25t26 -64q0 -24 -12 -44t-33 -31.5t-45 -11.5 q-38 0 -63 25t-25 62z" />
<glyph unicode="&#xf0;" d="M110 385q0 88 28 164.5t76 128t111.5 81t132.5 29.5q160 0 258 -113q-22 103 -76.5 186.5t-134.5 140.5l-130 -130l-97 49l132 139q-83 39 -192 59l31 108q152 -32 244 -80l115 119l83 -72l-101 -104q97 -68 159.5 -161.5t92.5 -216t30 -279.5q0 -207 -106 -329 t-283 -122q-78 0 -145.5 27t-118.5 77t-80 127t-29 172zM250 391q0 -143 63.5 -220t168.5 -77q116 0 184 88.5t68 255.5q0 32 -7 106q-42 65 -107 99.5t-145 34.5q-45 0 -84.5 -17t-71.5 -51t-50.5 -90t-18.5 -129z" />
<glyph unicode="&#xf1;" d="M164 0v863h118l12 -121q50 65 128 102.5t156 37.5q243 0 243 -256v-626h-138v524q0 58 -3 94.5t-11.5 68.5t-25 49t-42.5 26.5t-65 9.5q-48 0 -95.5 -22.5t-81 -54t-57.5 -68.5v-627h-138zM223 1126q20 41 44.5 71t58 49t71.5 19q31 0 59.5 -12.5t46.5 -27.5t40.5 -27.5 t42.5 -12.5q17 0 31.5 8t27.5 24t29 41l88 -44q-62 -134 -176 -134q-23 0 -46 8t-40.5 19.5t-34.5 23t-34.5 19.5t-33.5 8q-27 0 -46.5 -18t-40.5 -57z" />
<glyph unicode="&#xf2;" d="M120 431q0 100 24.5 182.5t71 142.5t117.5 93t160 33q178 0 274 -120.5t96 -328.5q0 -134 -42 -235t-127 -158.5t-203 -57.5q-178 0 -274.5 120.5t-96.5 328.5zM269 431q0 -171 55 -253.5t167.5 -82.5t167.5 83t55 255q0 336 -221 336q-112 0 -168 -83.5t-56 -254.5z M302 1171l75 119l301 -196l-44 -75z" />
<glyph unicode="&#xf3;" d="M120 431q0 100 24.5 182.5t71 142.5t117.5 93t160 33q178 0 274 -120.5t96 -328.5q0 -134 -42 -235t-127 -158.5t-203 -57.5q-178 0 -274.5 120.5t-96.5 328.5zM269 431q0 -171 55 -253.5t167.5 -82.5t167.5 83t55 255q0 336 -221 336q-112 0 -168 -83.5t-56 -254.5z M306 1122l323 184l62 -118l-342 -139z" />
<glyph unicode="&#xf4;" d="M120 431q0 100 24.5 182.5t71 142.5t117.5 93t160 33q178 0 274 -120.5t96 -328.5q0 -134 -42 -235t-127 -158.5t-203 -57.5q-178 0 -274.5 120.5t-96.5 328.5zM225 1098l221 195h93l219 -195l-62 -68l-203 150l-203 -150zM269 431q0 -171 55 -253.5t167.5 -82.5 t167.5 83t55 255q0 336 -221 336q-112 0 -168 -83.5t-56 -254.5z" />
<glyph unicode="&#xf5;" d="M120 431q0 100 24.5 182.5t71 142.5t117.5 93t160 33q178 0 274 -120.5t96 -328.5q0 -134 -42 -235t-127 -158.5t-203 -57.5q-178 0 -274.5 120.5t-96.5 328.5zM223 1126q20 41 44.5 71t58 49t71.5 19q31 0 59.5 -12.5t46.5 -27.5t40.5 -27.5t42.5 -12.5q17 0 31.5 8 t27.5 24t29 41l88 -44q-62 -134 -176 -134q-23 0 -46 8t-40.5 19.5t-34.5 23t-34.5 19.5t-33.5 8q-27 0 -46.5 -18t-40.5 -57zM269 431q0 -171 55 -253.5t167.5 -82.5t167.5 83t55 255q0 336 -221 336q-112 0 -168 -83.5t-56 -254.5z" />
<glyph unicode="&#xf6;" d="M120 431q0 100 24.5 182.5t71 142.5t117.5 93t160 33q178 0 274 -120.5t96 -328.5q0 -134 -42 -235t-127 -158.5t-203 -57.5q-178 0 -274.5 120.5t-96.5 328.5zM231 1149q0 39 26 64t64 25t63.5 -25t25.5 -64q0 -37 -26 -62t-63.5 -25t-63.5 25t-26 62zM269 431 q0 -171 55 -253.5t167.5 -82.5t167.5 83t55 255q0 336 -221 336q-112 0 -168 -83.5t-56 -254.5zM572 1149q0 39 25 64t63 25t64 -25t26 -64q0 -24 -12 -44t-32.5 -31.5t-45.5 -11.5t-45 11.5t-31.5 31.5t-11.5 44z" />
<glyph unicode="&#xf7;" d="M190 452v118h603v-118h-603zM380 190.5q0 45.5 32.5 77.5t79 32t79 -32t32.5 -77.5t-32.5 -78t-79 -32.5t-79 32.5t-32.5 78zM380 832q0 46 32.5 78t79 32t79 -32t32.5 -78q0 -45 -32.5 -76.5t-79.5 -31.5t-79 31t-32 77z" />
<glyph unicode="&#xf8;" d="M120 431q0 100 24.5 182.5t71 142.5t117.5 93t160 33q37 0 81 -8l62 197l114 -34l-67 -205q57 -35 97.5 -93t61.5 -136t21 -170q0 -134 -42 -235t-127 -158.5t-203 -57.5q-42 0 -81 7l-61 -202l-115 33l69 210q-88 52 -135.5 156t-47.5 245zM269 431q0 -218 85 -292 l193 624q-28 6 -54 6q-224 0 -224 -338zM438 100q24 -5 53 -5q223 0 223 338q0 216 -84 289z" />
<glyph unicode="&#xf9;" d="M164 236v627h138v-613q0 -83 35 -121.5t110 -38.5q46 0 92 19.5t82.5 50t60.5 68.5v635h137v-863h-117l-12 116q-51 -64 -125 -99t-152 -35q-124 0 -186.5 65.5t-62.5 188.5zM302 1171l75 119l301 -196l-44 -75z" />
<glyph unicode="&#xfa;" d="M164 236v627h138v-613q0 -83 35 -121.5t110 -38.5q46 0 92 19.5t82.5 50t60.5 68.5v635h137v-863h-117l-12 116q-51 -64 -125 -99t-152 -35q-124 0 -186.5 65.5t-62.5 188.5zM306 1122l323 184l62 -118l-342 -139z" />
<glyph unicode="&#xfb;" d="M164 236v627h138v-613q0 -83 35 -121.5t110 -38.5q46 0 92 19.5t82.5 50t60.5 68.5v635h137v-863h-117l-12 116q-51 -64 -125 -99t-152 -35q-124 0 -186.5 65.5t-62.5 188.5zM225 1098l221 195h93l219 -195l-62 -68l-203 150l-203 -150z" />
<glyph unicode="&#xfc;" d="M164 236v627h138v-613q0 -83 35 -121.5t110 -38.5q46 0 92 19.5t82.5 50t60.5 68.5v635h137v-863h-117l-12 116q-51 -64 -125 -99t-152 -35q-124 0 -186.5 65.5t-62.5 188.5zM231 1149q0 39 26 64t64 25t63.5 -25t25.5 -64q0 -37 -26 -62t-63.5 -25t-63.5 25t-26 62z M572 1149q0 39 25 64t63 25t64 -25t26 -64q0 -24 -12 -44t-32.5 -31.5t-45.5 -11.5t-45 11.5t-31.5 31.5t-11.5 44z" />
<glyph unicode="&#xfd;" d="M102 863h145l247 -758l245 758h143l-302 -868q-19 -56 -41 -101t-55 -88t-73 -73t-95 -51.5t-122 -28.5l-20 109q65 12 110.5 31.5t76 50.5t49.5 66.5t37 89.5h-45zM306 1122l323 184l62 -118l-342 -139z" />
<glyph unicode="&#xfe;" d="M164 -347v1557l138 17v-472q48 61 112 94t136 33q313 0 313 -449q0 -134 -35.5 -234t-111 -158.5t-185.5 -58.5q-141 0 -229 98v-411zM302 205q22 -34 53 -58t68 -37t77 -13q108 0 161 82.5t53 253.5q0 170 -47.5 253.5t-148.5 83.5q-66 0 -121 -39t-95 -98v-428z" />
<glyph unicode="&#xff;" d="M102 863h145l247 -758l245 758h143l-302 -868q-19 -56 -41 -101t-55 -88t-73 -73t-95 -51.5t-122 -28.5l-20 109q65 12 110.5 31.5t76 50.5t49.5 66.5t37 89.5h-45zM231 1149q0 39 26 64t64 25t63.5 -25t25.5 -64q0 -37 -26 -62t-63.5 -25t-63.5 25t-26 62zM572 1149 q0 39 25 64t63 25t64 -25t26 -64q0 -24 -12 -44t-32.5 -31.5t-45.5 -11.5t-45 11.5t-31.5 31.5t-11.5 44z" />
<glyph unicode="&#x152;" d="M-2 562q0 285 88 435t261 150q53 0 117 -18h532l-16 -116h-400q95 -112 106 -383h253v-116h-253q-3 -142 -32 -240.5t-80 -157.5h437v-116h-553q-59 -18 -111 -18q-349 0 -349 580zM150 562q0 -247 48.5 -356t147.5 -109q69 0 112.5 46.5t65.5 149.5t22 271 q0 249 -47 357t-153 108q-101 0 -148.5 -110t-47.5 -357z" />
<glyph unicode="&#x153;" d="M-3 431q0 102 16 183t49 141.5t86.5 93.5t125.5 33q96 0 149.5 -43.5t82.5 -125.5q69 169 230 169q139 0 205.5 -110.5t66.5 -314.5q0 -25 -4 -75h-430q11 -150 53 -217.5t127 -67.5q43 0 78 15.5t79 49.5l64 -95q-53 -42 -105.5 -63.5t-119.5 -21.5q-178 0 -244 165 q-33 -80 -87.5 -122.5t-144.5 -42.5q-94 0 -157 56.5t-91.5 155t-28.5 237.5zM142 431q0 -178 35 -257t115 -79t112 76t32 262q0 117 -14 190t-46 110t-84 37q-80 0 -115 -82t-35 -257zM574 490h300q-2 70 -9 119.5t-23 85.5t-43.5 53.5t-66.5 17.5q-76 0 -112.5 -62 t-45.5 -214z" />
<glyph unicode="&#x178;" d="M38 1129h157l299 -567l304 567h148l-382 -693v-436h-145v434zM236 1343q0 26 12 47t32.5 32.5t45.5 11.5q38 0 63 -25.5t25 -65.5q0 -24 -11 -43.5t-31.5 -31t-45.5 -11.5q-38 0 -64 25t-26 61zM577 1343q0 40 25 65.5t63 25.5t64 -26t26 -65q0 -24 -12 -44t-32.5 -31 t-45.5 -11q-38 0 -63 24.5t-25 61.5z" />
<glyph unicode="&#x2c6;" d="M225 1098l221 195h93l219 -195l-62 -68l-203 150l-203 -150z" />
<glyph unicode="&#x2dc;" d="M223 1126q20 41 44.5 71t58 49t71.5 19q31 0 59.5 -12.5t46.5 -27.5t40.5 -27.5t42.5 -12.5q17 0 31.5 8t27.5 24t29 41l88 -44q-62 -134 -176 -134q-23 0 -46 8t-40.5 19.5t-34.5 23t-34.5 19.5t-33.5 8q-27 0 -46.5 -18t-40.5 -57z" />
<glyph unicode="&#x2000;" horiz-adv-x="772" />
<glyph unicode="&#x2001;" horiz-adv-x="1545" />
<glyph unicode="&#x2002;" horiz-adv-x="772" />
<glyph unicode="&#x2003;" horiz-adv-x="1545" />
<glyph unicode="&#x2004;" horiz-adv-x="515" />
<glyph unicode="&#x2005;" horiz-adv-x="386" />
<glyph unicode="&#x2006;" horiz-adv-x="257" />
<glyph unicode="&#x2007;" horiz-adv-x="257" />
<glyph unicode="&#x2008;" horiz-adv-x="193" />
<glyph unicode="&#x2009;" horiz-adv-x="309" />
<glyph unicode="&#x200a;" horiz-adv-x="85" />
<glyph unicode="&#x2010;" d="M205 454v118h573v-118h-573z" />
<glyph unicode="&#x2011;" d="M205 454v118h573v-118h-573z" />
<glyph unicode="&#x2012;" d="M205 454v118h573v-118h-573z" />
<glyph unicode="&#x2013;" d="M54 454v118h875v-118h-875z" />
<glyph unicode="&#x2014;" d="M0 454v118h983v-118h-983z" />
<glyph unicode="&#x2018;" d="M357 902q0 48 28 108l134 283h108l-67 -302q13 -9 23 -23t16 -31t6 -35q0 -50 -37 -85t-88 -35q-52 0 -87.5 35t-35.5 85z" />
<glyph unicode="&#x2019;" d="M354 782l67 301q-44 34 -44 90q0 50 37.5 85t87.5 35q51 0 88 -35t37 -85q0 -42 -31 -108l-134 -283h-108z" />
<glyph unicode="&#x201a;" d="M354 -298l67 301q-20 14 -32 38t-12 51q0 50 37.5 85.5t87.5 35.5q33 0 62 -16t45.5 -44t16.5 -61q0 -43 -30 -106l-134 -284h-108z" />
<glyph unicode="&#x201c;" d="M178 902q0 45 30 108l133 283h109l-67 -302q20 -14 31.5 -37.5t11.5 -51.5q0 -50 -36.5 -85t-87.5 -35q-34 0 -62.5 16t-45 43.5t-16.5 60.5zM534 902q0 50 28 108l134 283h109l-67 -302q20 -14 32 -38t12 -51q0 -49 -37.5 -84.5t-87.5 -35.5q-52 0 -87.5 35t-35.5 85z " />
<glyph unicode="&#x201d;" d="M177 780l65 302q-19 14 -30.5 38t-11.5 51q0 50 37.5 85t87.5 35q34 0 62.5 -16t45 -43.5t16.5 -60.5q0 -41 -31 -108l-133 -283h-108zM531 780l67 302q-43 30 -43 89q0 50 37 85t88 35t88 -35t37 -85q0 -41 -31 -108l-135 -283h-108z" />
<glyph unicode="&#x201e;" d="M178 -298l68 301q-20 14 -32 38t-12 51q0 50 37.5 85.5t86.5 35.5q52 0 89 -35.5t37 -85.5q0 -40 -31 -106l-135 -284h-108zM531 -298l67 301q-19 14 -31 38t-12 51q0 50 37 85.5t88 35.5t87 -35.5t36 -85.5q0 -44 -29 -106l-135 -284h-108z" />
<glyph unicode="&#x2022;" d="M292 560q0 86 56.5 142t142.5 56t143 -57t57 -143q0 -85 -57 -141t-143 -56t-142.5 56.5t-56.5 142.5z" />
<glyph unicode="&#x2026;" d="M53 94q0 45 31.5 77t77.5 32q48 0 80 -31.5t32 -77.5q0 -48 -32 -80t-80 -32q-46 0 -77.5 32.5t-31.5 79.5zM380 94q0 45 32.5 77t79 32t78.5 -32t32 -77q0 -47 -32 -79.5t-79 -32.5t-79 32.5t-32 79.5zM710 94q0 45 31.5 77t77.5 32q48 0 79.5 -31.5t31.5 -77.5 q0 -48 -31.5 -80t-79.5 -32q-46 0 -77.5 32.5t-31.5 79.5z" />
<glyph unicode="&#x202f;" horiz-adv-x="309" />
<glyph unicode="&#x2039;" d="M308 431v100l285 341l82 -51l-220 -339l220 -340l-82 -52z" />
<glyph unicode="&#x203a;" d="M308 142l219 340l-219 339l82 51l285 -341v-100l-285 -341z" />
<glyph unicode="&#x205f;" horiz-adv-x="386" />
<glyph unicode="&#x20ac;" d="M58 397l24 97h118l2 152h-144l24 96h131q36 193 146.5 299t264.5 106q82 0 143.5 -18t118.5 -56l-68 -99q-90 55 -188 55q-111 0 -179.5 -68.5t-91.5 -218.5h401l-22 -96h-391v-152h358l-23 -97h-328q19 -154 83.5 -225.5t184.5 -71.5q48 0 93.5 12t79 29.5t59.5 40.5 v-143q-104 -57 -236 -57q-171 0 -275 106.5t-133 308.5h-152z" />
<glyph unicode="&#x2122;" d="M22 1035v92h591l85 -460l71 460h155l25 -639h-100l-15 380q-5 130 -4 161h-3l-77 -479h-106l-94 479h-4q2 -78 0 -159l-15 -382h-95l22 547h-173v-547h-102v547h-161z" />
<glyph unicode="&#x25fc;" horiz-adv-x="860" d="M0 0v860h860v-860h-860z" />
<glyph unicode="&#xfb01;" d="M33 754v109h147v105q0 78 43 137.5t115.5 90.5t161.5 31q125 0 234 -45l-44 -104q-82 36 -185 36q-186 0 -186 -143v-108h487v-753h154v-110h-446v110h153v644h-348v-754h-139v754h-147z" />
<glyph unicode="&#xfb02;" d="M23 754v109h149v105q0 117 90.5 188t228.5 71q80 0 161 -29l123 26v-1027q0 -55 21 -77.5t62 -22.5q40 0 89 17l38 -98q-68 -34 -146 -34q-91 0 -147 52.5t-56 157.5v904q-63 18 -138 18q-187 0 -187 -143v-108h207l-16 -109h-191v-754h-139v754h-149z" />
</font>
</defs>
</svg>
