<?xml version="1.0" standalone="no"?>
<!DOCTYPE svg PUBLIC "-//W3C//DTD SVG 1.1//EN" "http://www.w3.org/Graphics/SVG/1.1/DTD/svg11.dtd" >
<svg xmlns="http://www.w3.org/2000/svg">
<metadata>
<json>
<![CDATA[
{
	"fontFamily": "mlibby-icons",
	"majorVersion": 1,
	"minorVersion": 0,
	"version": "Version 1.0",
	"fontId": "mlibby-icons",
	"psName": "mlibby-icons",
	"subFamily": "Regular",
	"fullName": "mlibby-icons",
	"description": "Font generated by IcoMoon."
}
]]>
</json>
</metadata>
<defs>
<font id="mlibby-icons" horiz-adv-x="1024">
<font-face units-per-em="1024" ascent="1024" descent="0" />
<missing-glyph horiz-adv-x="1024" />
<glyph unicode="&#x20;" horiz-adv-x="512" d="" />
<glyph unicode="&#xf000;" glyph-name="glass" data-tags="glass" d="M970.857 917.714c0-16.571-13.143-33.143-24.571-44.571l-361.143-361.143v-438.857h182.857c20 0 36.571-16.571 36.571-36.571s-16.571-36.571-36.571-36.571h-512c-20 0-36.571 16.571-36.571 36.571s16.571 36.571 36.571 36.571h182.857v438.857l-361.143 361.143c-11.429 11.429-24.571 28-24.571 44.571 0 28 35.429 33.143 56.571 33.143h804.571c21.143 0 56.571-5.143 56.571-33.143z" />
<glyph unicode="&#xf002;" glyph-name="search" data-tags="search" horiz-adv-x="951" d="M658.286 548.571c0 141.143-114.857 256-256 256s-256-114.857-256-256 114.857-256 256-256 256 114.857 256 256zM950.857 73.143c0-40-33.143-73.143-73.143-73.143-19.429 0-38.286 8-51.429 21.714l-196 195.429c-66.857-46.286-146.857-70.857-228-70.857-222.286 0-402.286 180-402.286 402.286s180 402.286 402.286 402.286 402.286-180 402.286-402.286c0-81.143-24.571-161.143-70.857-228l196-196c13.143-13.143 21.143-32 21.143-51.429z" />
<glyph unicode="&#xf003;" glyph-name="envelope-o" data-tags="envelope-o" d="M950.857 164.571v438.857c-12-13.714-25.143-26.286-39.429-37.714-81.714-62.857-164-126.857-243.429-193.143-42.857-36-96-80-155.429-80h-1.143c-59.429 0-112.571 44-155.429 80-79.429 66.286-161.714 130.286-243.429 193.143-14.286 11.429-27.429 24-39.429 37.714v-438.857c0-9.714 8.571-18.286 18.286-18.286h841.143c9.714 0 18.286 8.571 18.286 18.286zM950.857 765.143c0 14.286 3.429 39.429-18.286 39.429h-841.143c-9.714 0-18.286-8.571-18.286-18.286 0-65.143 32.571-121.714 84-162.286 76.571-60 153.143-120.571 229.143-181.143 30.286-24.571 85.143-77.143 125.143-77.143h1.143c40 0 94.857 52.571 125.143 77.143 76 60.571 152.571 121.143 229.143 181.143 37.143 29.143 84 92.571 84 141.143zM1024 786.286v-621.714c0-50.286-41.143-91.429-91.429-91.429h-841.143c-50.286 0-91.429 41.143-91.429 91.429v621.714c0 50.286 41.143 91.429 91.429 91.429h841.143c50.286 0 91.429-41.143 91.429-91.429z" />
<glyph unicode="&#xf008;" glyph-name="film" data-tags="film" horiz-adv-x="1097" d="M219.429 109.714v73.143c0 20-16.571 36.571-36.571 36.571h-73.143c-20 0-36.571-16.571-36.571-36.571v-73.143c0-20 16.571-36.571 36.571-36.571h73.143c20 0 36.571 16.571 36.571 36.571zM219.429 329.143v73.143c0 20-16.571 36.571-36.571 36.571h-73.143c-20 0-36.571-16.571-36.571-36.571v-73.143c0-20 16.571-36.571 36.571-36.571h73.143c20 0 36.571 16.571 36.571 36.571zM219.429 548.571v73.143c0 20-16.571 36.571-36.571 36.571h-73.143c-20 0-36.571-16.571-36.571-36.571v-73.143c0-20 16.571-36.571 36.571-36.571h73.143c20 0 36.571 16.571 36.571 36.571zM804.571 109.714v292.571c0 20-16.571 36.571-36.571 36.571h-438.857c-20 0-36.571-16.571-36.571-36.571v-292.571c0-20 16.571-36.571 36.571-36.571h438.857c20 0 36.571 16.571 36.571 36.571zM219.429 768v73.143c0 20-16.571 36.571-36.571 36.571h-73.143c-20 0-36.571-16.571-36.571-36.571v-73.143c0-20 16.571-36.571 36.571-36.571h73.143c20 0 36.571 16.571 36.571 36.571zM1024 109.714v73.143c0 20-16.571 36.571-36.571 36.571h-73.143c-20 0-36.571-16.571-36.571-36.571v-73.143c0-20 16.571-36.571 36.571-36.571h73.143c20 0 36.571 16.571 36.571 36.571zM804.571 548.571v292.571c0 20-16.571 36.571-36.571 36.571h-438.857c-20 0-36.571-16.571-36.571-36.571v-292.571c0-20 16.571-36.571 36.571-36.571h438.857c20 0 36.571 16.571 36.571 36.571zM1024 329.143v73.143c0 20-16.571 36.571-36.571 36.571h-73.143c-20 0-36.571-16.571-36.571-36.571v-73.143c0-20 16.571-36.571 36.571-36.571h73.143c20 0 36.571 16.571 36.571 36.571zM1024 548.571v73.143c0 20-16.571 36.571-36.571 36.571h-73.143c-20 0-36.571-16.571-36.571-36.571v-73.143c0-20 16.571-36.571 36.571-36.571h73.143c20 0 36.571 16.571 36.571 36.571zM1024 768v73.143c0 20-16.571 36.571-36.571 36.571h-73.143c-20 0-36.571-16.571-36.571-36.571v-73.143c0-20 16.571-36.571 36.571-36.571h73.143c20 0 36.571 16.571 36.571 36.571zM1097.143 859.429v-768c0-50.286-41.143-91.429-91.429-91.429h-914.286c-50.286 0-91.429 41.143-91.429 91.429v768c0 50.286 41.143 91.429 91.429 91.429h914.286c50.286 0 91.429-41.143 91.429-91.429z" />
<glyph unicode="&#xf00d;" glyph-name="close, remove, times" data-tags="close, remove, times" horiz-adv-x="805" d="M741.714 268.571c0-14.286-5.714-28.571-16-38.857l-77.714-77.714c-10.286-10.286-24.571-16-38.857-16s-28.571 5.714-38.857 16l-168 168-168-168c-10.286-10.286-24.571-16-38.857-16s-28.571 5.714-38.857 16l-77.714 77.714c-10.286 10.286-16 24.571-16 38.857s5.714 28.571 16 38.857l168 168-168 168c-10.286 10.286-16 24.571-16 38.857s5.714 28.571 16 38.857l77.714 77.714c10.286 10.286 24.571 16 38.857 16s28.571-5.714 38.857-16l168-168 168 168c10.286 10.286 24.571 16 38.857 16s28.571-5.714 38.857-16l77.714-77.714c10.286-10.286 16-24.571 16-38.857s-5.714-28.571-16-38.857l-168-168 168-168c10.286-10.286 16-24.571 16-38.857z" />
<glyph unicode="&#xf011;" glyph-name="power-off" data-tags="power-off" horiz-adv-x="878" d="M877.714 512c0-241.714-197.143-438.857-438.857-438.857s-438.857 197.143-438.857 438.857c0 138.857 64 266.857 175.429 350.286 32.571 24.571 78.286 18.286 102.286-14.286 24.571-32 17.714-78.286-14.286-102.286-74.286-56-117.143-141.143-117.143-233.714 0-161.143 131.429-292.571 292.571-292.571s292.571 131.429 292.571 292.571c0 92.571-42.857 177.714-117.143 233.714-32 24-38.857 70.286-14.286 102.286 24 32.571 70.286 38.857 102.286 14.286 111.429-83.429 175.429-211.429 175.429-350.286zM512 950.857v-365.714c0-40-33.143-73.143-73.143-73.143s-73.143 33.143-73.143 73.143v365.714c0 40 33.143 73.143 73.143 73.143s73.143-33.143 73.143-73.143z" />
<glyph unicode="&#xf013;" glyph-name="cog, gear" data-tags="cog, gear" horiz-adv-x="878" d="M585.143 512c0 80.571-65.714 146.286-146.286 146.286s-146.286-65.714-146.286-146.286 65.714-146.286 146.286-146.286 146.286 65.714 146.286 146.286zM877.714 574.286v-126.857c0-8.571-6.857-18.857-16-20.571l-105.714-16c-6.286-18.286-13.143-35.429-22.286-52 19.429-28 40-53.143 61.143-78.857 3.429-4 5.714-9.143 5.714-14.286s-1.714-9.143-5.143-13.143c-13.714-18.286-90.857-102.286-110.286-102.286-5.143 0-10.286 2.286-14.857 5.143l-78.857 61.714c-16.571-8.571-34.286-16-52-21.714-4-34.857-7.429-72-16.571-106.286-2.286-9.143-10.286-16-20.571-16h-126.857c-10.286 0-19.429 7.429-20.571 17.143l-16 105.143c-17.714 5.714-34.857 12.571-51.429 21.143l-80.571-61.143c-4-3.429-9.143-5.143-14.286-5.143s-10.286 2.286-14.286 6.286c-30.286 27.429-70.286 62.857-94.286 96-2.857 4-4 8.571-4 13.143 0 5.143 1.714 9.143 4.571 13.143 19.429 26.286 40.571 51.429 60 78.286-9.714 18.286-17.714 37.143-23.429 56.571l-104.571 15.429c-9.714 1.714-16.571 10.857-16.571 20.571v126.857c0 8.571 6.857 18.857 15.429 20.571l106.286 16c5.714 18.286 13.143 35.429 22.286 52.571-19.429 27.429-40 53.143-61.143 78.857-3.429 4-5.714 8.571-5.714 13.714s2.286 9.143 5.143 13.143c13.714 18.857 90.857 102.286 110.286 102.286 5.143 0 10.286-2.286 14.857-5.714l78.857-61.143c16.571 8.571 34.286 16 52 21.714 4 34.857 7.429 72 16.571 106.286 2.286 9.143 10.286 16 20.571 16h126.857c10.286 0 19.429-7.429 20.571-17.143l16-105.143c17.714-5.714 34.857-12.571 51.429-21.143l81.143 61.143c3.429 3.429 8.571 5.143 13.714 5.143s10.286-2.286 14.286-5.714c30.286-28 70.286-63.429 94.286-97.143 2.857-3.429 4-8 4-12.571 0-5.143-1.714-9.143-4.571-13.143-19.429-26.286-40.571-51.429-60-78.286 9.714-18.286 17.714-37.143 23.429-56l104.571-16c9.714-1.714 16.571-10.857 16.571-20.571z" />
<glyph unicode="&#xf015;" glyph-name="home" data-tags="home" horiz-adv-x="951" d="M804.571 457.143v-274.286c0-20-16.571-36.571-36.571-36.571h-219.429v219.429h-146.286v-219.429h-219.429c-20 0-36.571 16.571-36.571 36.571v274.286c0 1.143 0.571 2.286 0.571 3.429l328.571 270.857 328.571-270.857c0.571-1.143 0.571-2.286 0.571-3.429zM932 496.571l-35.429-42.286c-2.857-3.429-7.429-5.714-12-6.286h-1.714c-4.571 0-8.571 1.143-12 4l-395.429 329.714-395.429-329.714c-4-2.857-8.571-4.571-13.714-4-4.571 0.571-9.143 2.857-12 6.286l-35.429 42.286c-6.286 7.429-5.143 19.429 2.286 25.714l410.857 342.286c24 20 62.857 20 86.857 0l139.429-116.571v111.429c0 10.286 8 18.286 18.286 18.286h109.714c10.286 0 18.286-8 18.286-18.286v-233.143l125.143-104c7.429-6.286 8.571-18.286 2.286-25.714z" />
<glyph unicode="&#xf021;" glyph-name="refresh" data-tags="refresh" horiz-adv-x="878" d="M863.429 420.571c0-1.143 0-2.857-0.571-4-48.571-202.286-215.429-343.429-426.286-343.429-111.429 0-219.429 44-300.571 121.143l-73.714-73.714c-6.857-6.857-16-10.857-25.714-10.857-20 0-36.571 16.571-36.571 36.571v256c0 20 16.571 36.571 36.571 36.571h256c20 0 36.571-16.571 36.571-36.571 0-9.714-4-18.857-10.857-25.714l-78.286-78.286c53.714-50.286 125.143-78.857 198.857-78.857 101.714 0 196 52.571 249.143 139.429 13.714 22.286 20.571 44 30.286 66.857 2.857 8 8.571 13.143 17.143 13.143h109.714c10.286 0 18.286-8.571 18.286-18.286zM877.714 877.714v-256c0-20-16.571-36.571-36.571-36.571h-256c-20 0-36.571 16.571-36.571 36.571 0 9.714 4 18.857 10.857 25.714l78.857 78.857c-54.286 50.286-125.714 78.286-199.429 78.286-101.714 0-196-52.571-249.143-139.429-13.714-22.286-20.571-44-30.286-66.857-2.857-8-8.571-13.143-17.143-13.143h-113.714c-10.286 0-18.286 8.571-18.286 18.286v4c49.143 202.857 217.714 343.429 428.571 343.429 112 0 221.143-44.571 302.286-121.143l74.286 73.714c6.857 6.857 16 10.857 25.714 10.857 20 0 36.571-16.571 36.571-36.571z" />
<glyph unicode="&#xf022;" glyph-name="list-alt" data-tags="list-alt" d="M219.429 347.429v-36.571c0-9.714-8.571-18.286-18.286-18.286h-36.571c-9.714 0-18.286 8.571-18.286 18.286v36.571c0 9.714 8.571 18.286 18.286 18.286h36.571c9.714 0 18.286-8.571 18.286-18.286zM219.429 493.714v-36.571c0-9.714-8.571-18.286-18.286-18.286h-36.571c-9.714 0-18.286 8.571-18.286 18.286v36.571c0 9.714 8.571 18.286 18.286 18.286h36.571c9.714 0 18.286-8.571 18.286-18.286zM219.429 640v-36.571c0-9.714-8.571-18.286-18.286-18.286h-36.571c-9.714 0-18.286 8.571-18.286 18.286v36.571c0 9.714 8.571 18.286 18.286 18.286h36.571c9.714 0 18.286-8.571 18.286-18.286zM877.714 347.429v-36.571c0-9.714-8.571-18.286-18.286-18.286h-548.571c-9.714 0-18.286 8.571-18.286 18.286v36.571c0 9.714 8.571 18.286 18.286 18.286h548.571c9.714 0 18.286-8.571 18.286-18.286zM877.714 493.714v-36.571c0-9.714-8.571-18.286-18.286-18.286h-548.571c-9.714 0-18.286 8.571-18.286 18.286v36.571c0 9.714 8.571 18.286 18.286 18.286h548.571c9.714 0 18.286-8.571 18.286-18.286zM877.714 640v-36.571c0-9.714-8.571-18.286-18.286-18.286h-548.571c-9.714 0-18.286 8.571-18.286 18.286v36.571c0 9.714 8.571 18.286 18.286 18.286h548.571c9.714 0 18.286-8.571 18.286-18.286zM950.857 237.714v475.429c0 9.714-8.571 18.286-18.286 18.286h-841.143c-9.714 0-18.286-8.571-18.286-18.286v-475.429c0-9.714 8.571-18.286 18.286-18.286h841.143c9.714 0 18.286 8.571 18.286 18.286zM1024 859.429v-621.714c0-50.286-41.143-91.429-91.429-91.429h-841.143c-50.286 0-91.429 41.143-91.429 91.429v621.714c0 50.286 41.143 91.429 91.429 91.429h841.143c50.286 0 91.429-41.143 91.429-91.429z" />
<glyph unicode="&#xf02d;" glyph-name="book" data-tags="book" horiz-adv-x="953" d="M936.571 750.857c14.286-20.571 18.286-47.429 10.286-73.714l-157.143-517.714c-14.286-48.571-64.571-86.286-113.714-86.286h-527.429c-58.286 0-120.571 46.286-141.714 105.714-9.143 25.714-9.143 50.857-1.143 72.571 1.143 11.429 3.429 22.857 4 36.571 0.571 9.143-4.571 16.571-3.429 23.429 2.286 13.714 14.286 23.429 23.429 38.857 17.143 28.571 36.571 74.857 42.857 104.571 2.857 10.857-2.857 23.429 0 33.143 2.857 10.857 13.714 18.857 19.429 29.143 15.429 26.286 35.429 77.143 38.286 104 1.143 12-4.571 25.143-1.143 34.286 4 13.143 16.571 18.857 25.143 30.286 13.714 18.857 36.571 73.143 40 103.429 1.143 9.714-4.571 19.429-2.857 29.714 2.286 10.857 16 22.286 25.143 35.429 24 35.429 28.571 113.714 101.143 93.143l-0.571-1.714c9.714 2.286 19.429 5.143 29.143 5.143h434.857c26.857 0 50.857-12 65.143-32 14.857-20.571 18.286-47.429 10.286-74.286l-156.571-517.714c-26.857-88-41.714-107.429-114.286-107.429h-496.571c-7.429 0-16.571-1.714-21.714-8.571-4.571-6.857-5.143-12-0.571-24.571 11.429-33.143 50.857-40 82.286-40h527.429c21.143 0 45.714 12 52 32.571l171.429 564c3.429 10.857 3.429 22.286 2.857 32.571 13.143-5.143 25.143-13.143 33.714-24.571zM328.571 749.714c-3.429-10.286 2.286-18.286 12.571-18.286h347.429c9.714 0 20.571 8 24 18.286l12 36.571c3.429 10.286-2.286 18.286-12.571 18.286h-347.429c-9.714 0-20.571-8-24-18.286zM281.143 603.429c-3.429-10.286 2.286-18.286 12.571-18.286h347.429c9.714 0 20.571 8 24 18.286l12 36.571c3.429 10.286-2.286 18.286-12.571 18.286h-347.429c-9.714 0-20.571-8-24-18.286z" />
<glyph unicode="&#xf030;" glyph-name="camera" data-tags="camera" horiz-adv-x="1097" d="M548.571 640c90.857 0 164.571-73.714 164.571-164.571s-73.714-164.571-164.571-164.571-164.571 73.714-164.571 164.571 73.714 164.571 164.571 164.571zM950.857 877.714c80.571 0 146.286-65.714 146.286-146.286v-512c0-80.571-65.714-146.286-146.286-146.286h-804.571c-80.571 0-146.286 65.714-146.286 146.286v512c0 80.571 65.714 146.286 146.286 146.286h128l29.143 77.714c14.286 37.714 58.857 68.571 98.857 68.571h292.571c40 0 84.571-30.857 98.857-68.571l29.143-77.714h128zM548.571 219.429c141.143 0 256 114.857 256 256s-114.857 256-256 256-256-114.857-256-256 114.857-256 256-256z" />
<glyph unicode="&#xf040;" glyph-name="pencil" data-tags="pencil" horiz-adv-x="866" d="M207.429 146.286l52 52-134.286 134.286-52-52v-61.143h73.143v-73.143h61.143zM506.286 676.571c0 7.429-5.143 12.571-12.571 12.571-3.429 0-6.857-1.143-9.714-4l-309.714-309.714c-2.857-2.857-4-6.286-4-9.714 0-7.429 5.143-12.571 12.571-12.571 3.429 0 6.857 1.143 9.714 4l309.714 309.714c2.857 2.857 4 6.286 4 9.714zM475.429 786.286l237.714-237.714-475.429-475.429h-237.714v237.714zM865.714 731.429c0-19.429-8-38.286-21.143-51.429l-94.857-94.857-237.714 237.714 94.857 94.286c13.143 13.714 32 21.714 51.429 21.714s38.286-8 52-21.714l134.286-133.714c13.143-13.714 21.143-32.571 21.143-52z" />
<glyph unicode="&#xf041;" glyph-name="map-marker" data-tags="map-marker" horiz-adv-x="585" d="M438.857 658.286c0 80.571-65.714 146.286-146.286 146.286s-146.286-65.714-146.286-146.286 65.714-146.286 146.286-146.286 146.286 65.714 146.286 146.286zM585.143 658.286c0-34.857-4-70.857-18.857-102.286l-208-442.286c-12-25.143-38.286-40.571-65.714-40.571s-53.714 15.429-65.143 40.571l-208.571 442.286c-14.857 31.429-18.857 67.429-18.857 102.286 0 161.714 130.857 292.571 292.571 292.571s292.571-130.857 292.571-292.571z" />
<glyph unicode="&#xf048;" glyph-name="step-backward" data-tags="step-backward" horiz-adv-x="585" d="M559.429 943.429c14.286 14.286 25.714 9.143 25.714-10.857v-841.143c0-20-11.429-25.143-25.714-10.857l-405.714 405.714c-3.429 3.429-5.714 6.857-7.429 10.857v-387.429c0-20-16.571-36.571-36.571-36.571h-73.143c-20 0-36.571 16.571-36.571 36.571v804.571c0 20 16.571 36.571 36.571 36.571h73.143c20 0 36.571-16.571 36.571-36.571v-387.429c1.714 4 4 7.429 7.429 10.857z" />
<glyph unicode="&#xf049;" glyph-name="fast-backward" data-tags="fast-backward" d="M998.286 943.429c14.286 14.286 25.714 9.143 25.714-10.857v-841.143c0-20-11.429-25.143-25.714-10.857l-405.714 405.714c-3.429 3.429-5.714 6.857-7.429 10.857v-405.714c0-20-11.429-25.143-25.714-10.857l-405.714 405.714c-3.429 3.429-5.714 6.857-7.429 10.857v-387.429c0-20-16.571-36.571-36.571-36.571h-73.143c-20 0-36.571 16.571-36.571 36.571v804.571c0 20 16.571 36.571 36.571 36.571h73.143c20 0 36.571-16.571 36.571-36.571v-387.429c1.714 4 4 7.429 7.429 10.857l405.714 405.714c14.286 14.286 25.714 9.143 25.714-10.857v-405.714c1.714 4 4 7.429 7.429 10.857z" />
<glyph unicode="&#xf04b;" glyph-name="play" data-tags="play" horiz-adv-x="809" d="M790.857 494.286l-758.857-421.714c-17.714-9.714-32-1.143-32 18.857v841.143c0 20 14.286 28.571 32 18.857l758.857-421.714c17.714-9.714 17.714-25.714 0-35.429z" />
<glyph unicode="&#xf04c;" glyph-name="pause" data-tags="pause" horiz-adv-x="878" d="M877.714 914.286v-804.571c0-20-16.571-36.571-36.571-36.571h-292.571c-20 0-36.571 16.571-36.571 36.571v804.571c0 20 16.571 36.571 36.571 36.571h292.571c20 0 36.571-16.571 36.571-36.571zM365.714 914.286v-804.571c0-20-16.571-36.571-36.571-36.571h-292.571c-20 0-36.571 16.571-36.571 36.571v804.571c0 20 16.571 36.571 36.571 36.571h292.571c20 0 36.571-16.571 36.571-36.571z" />
<glyph unicode="&#xf04d;" glyph-name="stop" data-tags="stop" horiz-adv-x="878" d="M877.714 914.286v-804.571c0-20-16.571-36.571-36.571-36.571h-804.571c-20 0-36.571 16.571-36.571 36.571v804.571c0 20 16.571 36.571 36.571 36.571h804.571c20 0 36.571-16.571 36.571-36.571z" />
<glyph unicode="&#xf04e;" glyph-name="forward" data-tags="forward" horiz-adv-x="885" d="M25.714 80.571c-14.286-14.286-25.714-9.143-25.714 10.857v841.143c0 20 11.429 25.143 25.714 10.857l405.714-405.714c3.429-3.429 5.714-6.857 7.429-10.857v405.714c0 20 11.429 25.143 25.714 10.857l405.714-405.714c14.286-14.286 14.286-37.143 0-51.429l-405.714-405.714c-14.286-14.286-25.714-9.143-25.714 10.857v405.714c-1.714-4-4-7.429-7.429-10.857z" />
<glyph unicode="&#xf050;" glyph-name="fast-forward" data-tags="fast-forward" d="M25.714 80.571c-14.286-14.286-25.714-9.143-25.714 10.857v841.143c0 20 11.429 25.143 25.714 10.857l405.714-405.714c3.429-3.429 5.714-6.857 7.429-10.857v405.714c0 20 11.429 25.143 25.714 10.857l405.714-405.714c3.429-3.429 5.714-6.857 7.429-10.857v387.429c0 20 16.571 36.571 36.571 36.571h73.143c20 0 36.571-16.571 36.571-36.571v-804.571c0-20-16.571-36.571-36.571-36.571h-73.143c-20 0-36.571 16.571-36.571 36.571v387.429c-1.714-4-4-7.429-7.429-10.857l-405.714-405.714c-14.286-14.286-25.714-9.143-25.714 10.857v405.714c-1.714-4-4-7.429-7.429-10.857z" />
<glyph unicode="&#xf051;" glyph-name="step-forward" data-tags="step-forward" horiz-adv-x="585" d="M25.714 80.571c-14.286-14.286-25.714-9.143-25.714 10.857v841.143c0 20 11.429 25.143 25.714 10.857l405.714-405.714c3.429-3.429 5.714-6.857 7.429-10.857v387.429c0 20 16.571 36.571 36.571 36.571h73.143c20 0 36.571-16.571 36.571-36.571v-804.571c0-20-16.571-36.571-36.571-36.571h-73.143c-20 0-36.571 16.571-36.571 36.571v387.429c-1.714-4-4-7.429-7.429-10.857z" />
<glyph unicode="&#xf053;" glyph-name="chevron-left" data-tags="chevron-left" horiz-adv-x="768" d="M669.143 852l-303.429-303.429 303.429-303.429c14.286-14.286 14.286-37.143 0-51.429l-94.857-94.857c-14.286-14.286-37.143-14.286-51.429 0l-424 424c-14.286 14.286-14.286 37.143 0 51.429l424 424c14.286 14.286 37.143 14.286 51.429 0l94.857-94.857c14.286-14.286 14.286-37.143 0-51.429z" />
<glyph unicode="&#xf054;" glyph-name="chevron-right" data-tags="chevron-right" horiz-adv-x="695" d="M632.571 522.857l-424-424c-14.286-14.286-37.143-14.286-51.429 0l-94.857 94.857c-14.286 14.286-14.286 37.143 0 51.429l303.429 303.429-303.429 303.429c-14.286 14.286-14.286 37.143 0 51.429l94.857 94.857c14.286 14.286 37.143 14.286 51.429 0l424-424c14.286-14.286 14.286-37.143 0-51.429z" />
<glyph unicode="&#xf067;" glyph-name="plus" data-tags="plus" horiz-adv-x="805" d="M804.571 603.429v-109.714c0-30.286-24.571-54.857-54.857-54.857h-237.714v-237.714c0-30.286-24.571-54.857-54.857-54.857h-109.714c-30.286 0-54.857 24.571-54.857 54.857v237.714h-237.714c-30.286 0-54.857 24.571-54.857 54.857v109.714c0 30.286 24.571 54.857 54.857 54.857h237.714v237.714c0 30.286 24.571 54.857 54.857 54.857h109.714c30.286 0 54.857-24.571 54.857-54.857v-237.714h237.714c30.286 0 54.857-24.571 54.857-54.857z" />
<glyph unicode="&#xf068;" glyph-name="minus" data-tags="minus" horiz-adv-x="805" d="M804.571 603.429v-109.714c0-30.286-24.571-54.857-54.857-54.857h-694.857c-30.286 0-54.857 24.571-54.857 54.857v109.714c0 30.286 24.571 54.857 54.857 54.857h694.857c30.286 0 54.857-24.571 54.857-54.857z" />
<glyph unicode="&#xf077;" glyph-name="chevron-up" data-tags="chevron-up" d="M961.714 263.429l-94.857-94.286c-14.286-14.286-37.143-14.286-51.429 0l-303.429 303.429-303.429-303.429c-14.286-14.286-37.143-14.286-51.429 0l-94.857 94.286c-14.286 14.286-14.286 37.714 0 52l424 423.429c14.286 14.286 37.143 14.286 51.429 0l424-423.429c14.286-14.286 14.286-37.714 0-52z" />
<glyph unicode="&#xf078;" glyph-name="chevron-down" data-tags="chevron-down" d="M961.714 562.286l-424-423.429c-14.286-14.286-37.143-14.286-51.429 0l-424 423.429c-14.286 14.286-14.286 37.714 0 52l94.857 94.286c14.286 14.286 37.143 14.286 51.429 0l303.429-303.429 303.429 303.429c14.286 14.286 37.143 14.286 51.429 0l94.857-94.286c14.286-14.286 14.286-37.714 0-52z" />
<glyph unicode="&#xf080;" glyph-name="bar-chart, bar-chart-o" data-tags="bar-chart, bar-chart-o" horiz-adv-x="1170" d="M365.714 512v-292.571h-146.286v292.571h146.286zM585.143 804.571v-585.143h-146.286v585.143h146.286zM1170.286 146.286v-73.143h-1170.286v877.714h73.143v-804.571h1097.143zM804.571 658.286v-438.857h-146.286v438.857h146.286zM1024 877.714v-658.286h-146.286v658.286h146.286z" />
<glyph unicode="&#xf085;" glyph-name="cogs, gears" data-tags="cogs, gears" horiz-adv-x="1097" d="M512 512c0 80.571-65.714 146.286-146.286 146.286s-146.286-65.714-146.286-146.286 65.714-146.286 146.286-146.286 146.286 65.714 146.286 146.286zM950.857 219.429c0 40-33.143 73.143-73.143 73.143s-73.143-33.143-73.143-73.143c0-40.571 33.143-73.143 73.143-73.143 40.571 0 73.143 33.143 73.143 73.143zM950.857 804.571c0 40-33.143 73.143-73.143 73.143s-73.143-33.143-73.143-73.143c0-40.571 33.143-73.143 73.143-73.143 40.571 0 73.143 33.143 73.143 73.143zM731.429 564v-105.714c0-7.429-5.714-16-13.143-17.143l-88.571-13.714c-4.571-14.857-10.857-29.143-18.286-43.429 16-22.857 33.143-44 51.429-65.714 2.286-3.429 4-6.857 4-11.429 0-4-1.143-8-4-10.857-11.429-15.429-75.429-85.143-92-85.143-4.571 0-8.571 1.714-12 4l-65.714 51.429c-14.286-7.429-28.571-13.143-44-17.714-2.857-29.143-5.714-60.571-13.143-88.571-2.286-8-9.143-13.714-17.143-13.714h-106.286c-8 0-16 6.286-17.143 14.286l-13.143 87.429c-14.857 4.571-29.143 10.857-42.857 17.714l-67.429-50.857c-2.857-2.857-7.429-4-11.429-4-4.571 0-8.571 1.714-12 4.571-14.857 13.714-82.286 74.857-82.286 91.429 0 4 1.714 7.429 4 10.857 16.571 21.714 33.714 42.857 50.286 65.143-8 15.429-14.857 30.857-20 46.857l-86.857 13.714c-8 1.143-13.714 8.571-13.714 16.571v105.714c0 7.429 5.714 16 13.143 17.143l88.571 13.714c4.571 14.857 10.857 29.143 18.286 43.429-16 22.857-33.143 44-51.429 65.714-2.286 3.429-4 7.429-4 11.429s1.143 8 4 11.429c11.429 15.429 75.429 84.571 92 84.571 4.571 0 8.571-1.714 12-4l65.714-51.429c14.286 7.429 28.571 13.143 44 18.286 2.857 28.571 5.714 60 13.143 88 2.286 8 9.143 13.714 17.143 13.714h106.286c8 0 16-6.286 17.143-14.286l13.143-87.429c14.857-4.571 29.143-10.857 42.857-17.714l67.429 50.857c3.429 2.857 7.429 4 11.429 4 4.571 0 8.571-1.714 12-4.571 14.857-13.714 82.286-75.429 82.286-91.429 0-4-1.714-7.429-4-10.857-16.571-22.286-33.714-42.857-49.714-65.143 7.429-15.429 14.286-30.857 19.429-46.857l86.857-13.143c8-1.714 13.714-9.143 13.714-17.143zM1097.143 259.429v-80c0-8.571-73.714-16.571-85.143-17.714-4.571-10.857-10.286-20.571-17.143-29.714 5.143-11.429 29.143-68.571 29.143-78.857 0-1.714-0.571-2.857-2.286-4-6.857-4-68-40.571-70.857-40.571-7.429 0-50.286 57.143-56 65.714-5.714-0.571-11.429-1.143-17.143-1.143s-11.429 0.571-17.143 1.143c-5.714-8.571-48.571-65.714-56-65.714-2.857 0-64 36.571-70.857 40.571-1.714 1.143-2.286 2.857-2.286 4 0 9.714 24 67.429 29.143 78.857-6.857 9.143-12.571 18.857-17.143 29.714-11.429 1.143-85.143 9.143-85.143 17.714v80c0 8.571 73.714 16.571 85.143 17.714 4.571 10.286 10.286 20.571 17.143 29.714-5.143 11.429-29.143 69.143-29.143 78.857 0 1.143 0.571 2.857 2.286 4 6.857 3.429 68 40 70.857 40 7.429 0 50.286-56.571 56-65.143 5.714 0.571 11.429 1.143 17.143 1.143s11.429-0.571 17.143-1.143c16 22.286 33.143 44.571 52.571 64l3.429 1.143c2.857 0 64-36 70.857-40 1.714-1.143 2.286-2.857 2.286-4 0-10.286-24-67.429-29.143-78.857 6.857-9.143 12.571-19.429 17.143-29.714 11.429-1.143 85.143-9.143 85.143-17.714zM1097.143 844.571v-80c0-8.571-73.714-16.571-85.143-17.714-4.571-10.857-10.286-20.571-17.143-29.714 5.143-11.429 29.143-68.571 29.143-78.857 0-1.714-0.571-2.857-2.286-4-6.857-4-68-40.571-70.857-40.571-7.429 0-50.286 57.143-56 65.714-5.714-0.571-11.429-1.143-17.143-1.143s-11.429 0.571-17.143 1.143c-5.714-8.571-48.571-65.714-56-65.714-2.857 0-64 36.571-70.857 40.571-1.714 1.143-2.286 2.857-2.286 4 0 9.714 24 67.429 29.143 78.857-6.857 9.143-12.571 18.857-17.143 29.714-11.429 1.143-85.143 9.143-85.143 17.714v80c0 8.571 73.714 16.571 85.143 17.714 4.571 10.286 10.286 20.571 17.143 29.714-5.143 11.429-29.143 69.143-29.143 78.857 0 1.143 0.571 2.857 2.286 4 6.857 3.429 68 40 70.857 40 7.429 0 50.286-56.571 56-65.143 5.714 0.571 11.429 1.143 17.143 1.143s11.429-0.571 17.143-1.143c16 22.286 33.143 44.571 52.571 64l3.429 1.143c2.857 0 64-36 70.857-40 1.714-1.143 2.286-2.857 2.286-4 0-10.286-24-67.429-29.143-78.857 6.857-9.143 12.571-19.429 17.143-29.714 11.429-1.143 85.143-9.143 85.143-17.714z" />
<glyph unicode="&#xf091;" glyph-name="trophy" data-tags="trophy" horiz-adv-x="951" d="M261.714 519.429c-24 52.571-42.286 122.286-42.286 212h-146.286v-54.857c0-56 76-133.714 188.571-157.143zM877.714 676.571v54.857h-146.286c0-89.714-18.286-159.429-42.286-212 112.571 23.429 188.571 101.143 188.571 157.143zM950.857 749.714v-73.143c0-108.571-131.429-228.571-309.714-237.143-22.857-29.143-44-46.286-54.286-54.286-30.286-27.429-38.286-56-38.286-92.571s18.286-73.143 73.143-73.143 109.714-36.571 109.714-91.429v-36.571c0-10.286-8-18.286-18.286-18.286h-475.429c-10.286 0-18.286 8-18.286 18.286v36.571c0 54.857 54.857 91.429 109.714 91.429s73.143 36.571 73.143 73.143-8 65.143-38.286 92.571c-10.286 8-31.429 25.143-54.286 54.286-178.286 8.571-309.714 128.571-309.714 237.143v73.143c0 30.286 24.571 54.857 54.857 54.857h164.571v54.857c0 50.286 41.143 91.429 91.429 91.429h329.143c50.286 0 91.429-41.143 91.429-91.429v-54.857h164.571c30.286 0 54.857-24.571 54.857-54.857z" />
<glyph unicode="&#xf093;" glyph-name="upload" data-tags="upload" horiz-adv-x="951" d="M731.429 182.857c0 20-16.571 36.571-36.571 36.571s-36.571-16.571-36.571-36.571 16.571-36.571 36.571-36.571 36.571 16.571 36.571 36.571zM877.714 182.857c0 20-16.571 36.571-36.571 36.571s-36.571-16.571-36.571-36.571 16.571-36.571 36.571-36.571 36.571 16.571 36.571 36.571zM950.857 310.857v-182.857c0-30.286-24.571-54.857-54.857-54.857h-841.143c-30.286 0-54.857 24.571-54.857 54.857v182.857c0 30.286 24.571 54.857 54.857 54.857h244c15.429-42.286 56-73.143 103.429-73.143h146.286c47.429 0 88 30.857 103.429 73.143h244c30.286 0 54.857-24.571 54.857-54.857zM765.143 681.143c-5.714-13.714-18.857-22.857-33.714-22.857h-146.286v-256c0-20-16.571-36.571-36.571-36.571h-146.286c-20 0-36.571 16.571-36.571 36.571v256h-146.286c-14.857 0-28 9.143-33.714 22.857-5.714 13.143-2.857 29.143 8 39.429l256 256c6.857 7.429 16.571 10.857 25.714 10.857s18.857-3.429 25.714-10.857l256-256c10.857-10.286 13.714-26.286 8-39.429z" />
<glyph unicode="&#xf095;" glyph-name="phone" data-tags="phone" horiz-adv-x="805" d="M804.571 315.429c0-20.571-9.143-60.571-17.714-79.429-12-28-44-46.286-69.714-60.571-33.714-18.286-68-29.143-106.286-29.143-53.143 0-101.143 21.714-149.714 39.429-34.857 12.571-68.571 28-100 47.429-97.143 60-214.286 177.143-274.286 274.286-19.429 31.429-34.857 65.143-47.429 100-17.714 48.571-39.429 96.571-39.429 149.714 0 38.286 10.857 72.571 29.143 106.286 14.286 25.714 32.571 57.714 60.571 69.714 18.857 8.571 58.857 17.714 79.429 17.714 4 0 8 0 12-1.714 12-4 24.571-32 30.286-43.429 18.286-32.571 36-65.714 54.857-97.714 9.143-14.857 26.286-33.143 26.286-50.857 0-34.857-103.429-85.714-103.429-116.571 0-15.429 14.286-35.429 22.286-49.143 57.714-104 129.714-176 233.714-233.714 13.714-8 33.714-22.286 49.143-22.286 30.857 0 81.714 103.429 116.571 103.429 17.714 0 36-17.143 50.857-26.286 32-18.857 65.143-36.571 97.714-54.857 11.429-5.714 39.429-18.286 43.429-30.286 1.714-4 1.714-8 1.714-12z" />
<glyph unicode="&#xf09b;" glyph-name="github" data-tags="github" horiz-adv-x="878" d="M438.857 950.857c242.286 0 438.857-196.571 438.857-438.857 0-193.714-125.714-358.286-300-416.571-22.286-4-30.286 9.714-30.286 21.143 0 14.286 0.571 61.714 0.571 120.571 0 41.143-13.714 67.429-29.714 81.143 97.714 10.857 200.571 48 200.571 216.571 0 48-17.143 86.857-45.143 117.714 4.571 11.429 19.429 56-4.571 116.571-36.571 11.429-120.571-45.143-120.571-45.143-34.857 9.714-72.571 14.857-109.714 14.857s-74.857-5.143-109.714-14.857c0 0-84 56.571-120.571 45.143-24-60.571-9.143-105.143-4.571-116.571-28-30.857-45.143-69.714-45.143-117.714 0-168 102.286-205.714 200-216.571-12.571-11.429-24-30.857-28-58.857-25.143-11.429-89.143-30.857-127.429 36.571-24 41.714-67.429 45.143-67.429 45.143-42.857 0.571-2.857-26.857-2.857-26.857 28.571-13.143 48.571-64 48.571-64 25.714-78.286 148-52 148-52 0-36.571 0.571-70.857 0.571-81.714 0-11.429-8-25.143-30.286-21.143-174.286 58.286-300 222.857-300 416.571 0 242.286 196.571 438.857 438.857 438.857zM166.286 320.571c1.143 2.286-0.571 5.143-4 6.857-3.429 1.143-6.286 0.571-7.429-1.143-1.143-2.286 0.571-5.143 4-6.857 2.857-1.714 6.286-1.143 7.429 1.143zM184 301.143c2.286 1.714 1.714 5.714-1.143 9.143-2.857 2.857-6.857 4-9.143 1.714-2.286-1.714-1.714-5.714 1.143-9.143 2.857-2.857 6.857-4 9.143-1.714zM201.143 275.429c2.857 2.286 2.857 6.857 0 10.857-2.286 4-6.857 5.714-9.714 3.429-2.857-1.714-2.857-6.286 0-10.286s7.429-5.714 9.714-4zM225.143 251.429c2.286 2.286 1.143 7.429-2.286 10.857-4 4-9.143 4.571-11.429 1.714-2.857-2.286-1.714-7.429 2.286-10.857 4-4 9.143-4.571 11.429-1.714zM257.714 237.143c1.143 3.429-2.286 7.429-7.429 9.143-4.571 1.143-9.714-0.571-10.857-4s2.286-7.429 7.429-8.571c4.571-1.714 9.714 0 10.857 3.429zM293.714 234.286c0 4-4.571 6.857-9.714 6.286-5.143 0-9.143-2.857-9.143-6.286 0-4 4-6.857 9.714-6.286 5.143 0 9.143 2.857 9.143 6.286zM326.857 240c-0.571 3.429-5.143 5.714-10.286 5.143-5.143-1.143-8.571-4.571-8-8.571 0.571-3.429 5.143-5.714 10.286-4.571s8.571 4.571 8 8z" />
<glyph unicode="&#xf0a0;" glyph-name="hdd-o" data-tags="hdd-o" horiz-adv-x="878" d="M594.286 329.143c0-25.143-20.571-45.714-45.714-45.714s-45.714 20.571-45.714 45.714 20.571 45.714 45.714 45.714 45.714-20.571 45.714-45.714zM740.571 329.143c0-25.143-20.571-45.714-45.714-45.714s-45.714 20.571-45.714 45.714 20.571 45.714 45.714 45.714 45.714-20.571 45.714-45.714zM804.571 237.714v182.857c0 9.714-8.571 18.286-18.286 18.286h-694.857c-9.714 0-18.286-8.571-18.286-18.286v-182.857c0-9.714 8.571-18.286 18.286-18.286h694.857c9.714 0 18.286 8.571 18.286 18.286zM101.714 512h674.286l-89.714 275.429c-2.857 9.714-13.714 17.143-24 17.143h-446.857c-10.286 0-21.143-7.429-24-17.143zM877.714 420.571v-182.857c0-50.286-41.143-91.429-91.429-91.429h-694.857c-50.286 0-91.429 41.143-91.429 91.429v182.857c0 15.429 4.571 28.571 9.143 42.857l112.571 346.286c13.143 40 51.429 68 93.714 68h446.857c42.286 0 80.571-28 93.714-68l112.571-346.286c4.571-14.286 9.143-27.429 9.143-42.857z" />
<glyph unicode="&#xf0c3;" glyph-name="flask" data-tags="flask" horiz-adv-x="951" d="M872.571 196.571c42.857-68 12.571-123.429-68-123.429h-658.286c-80.571 0-110.857 55.429-68 123.429l287.429 453.143v228h-36.571c-20 0-36.571 16.571-36.571 36.571s16.571 36.571 36.571 36.571h292.571c20 0 36.571-16.571 36.571-36.571s-16.571-36.571-36.571-36.571h-36.571v-228zM427.429 610.857l-155.429-245.143h406.857l-155.429 245.143-11.429 17.714v249.143h-73.143v-249.143z" />
<glyph unicode="&#xf0c7;" glyph-name="floppy-o, save" data-tags="floppy-o, save" horiz-adv-x="878" d="M219.429 146.286h438.857v219.429h-438.857v-219.429zM731.429 146.286h73.143v512c0 10.857-9.714 34.286-17.143 41.714l-160.571 160.571c-8 8-30.286 17.143-41.714 17.143v-237.714c0-30.286-24.571-54.857-54.857-54.857h-329.143c-30.286 0-54.857 24.571-54.857 54.857v237.714h-73.143v-731.429h73.143v237.714c0 30.286 24.571 54.857 54.857 54.857h475.429c30.286 0 54.857-24.571 54.857-54.857v-237.714zM512 676.571v182.857c0 9.714-8.571 18.286-18.286 18.286h-109.714c-9.714 0-18.286-8.571-18.286-18.286v-182.857c0-9.714 8.571-18.286 18.286-18.286h109.714c9.714 0 18.286 8.571 18.286 18.286zM877.714 658.286v-530.286c0-30.286-24.571-54.857-54.857-54.857h-768c-30.286 0-54.857 24.571-54.857 54.857v768c0 30.286 24.571 54.857 54.857 54.857h530.286c30.286 0 72-17.143 93.714-38.857l160-160c21.714-21.714 38.857-63.429 38.857-93.714z" />
<glyph unicode="&#xf0ca;" glyph-name="list-ul" data-tags="list-ul" d="M219.429 219.429c0-60.571-49.143-109.714-109.714-109.714s-109.714 49.143-109.714 109.714 49.143 109.714 109.714 109.714 109.714-49.143 109.714-109.714zM219.429 512c0-60.571-49.143-109.714-109.714-109.714s-109.714 49.143-109.714 109.714 49.143 109.714 109.714 109.714 109.714-49.143 109.714-109.714zM1024 274.286v-109.714c0-9.714-8.571-18.286-18.286-18.286h-694.857c-9.714 0-18.286 8.571-18.286 18.286v109.714c0 9.714 8.571 18.286 18.286 18.286h694.857c9.714 0 18.286-8.571 18.286-18.286zM219.429 804.571c0-60.571-49.143-109.714-109.714-109.714s-109.714 49.143-109.714 109.714 49.143 109.714 109.714 109.714 109.714-49.143 109.714-109.714zM1024 566.857v-109.714c0-9.714-8.571-18.286-18.286-18.286h-694.857c-9.714 0-18.286 8.571-18.286 18.286v109.714c0 9.714 8.571 18.286 18.286 18.286h694.857c9.714 0 18.286-8.571 18.286-18.286zM1024 859.429v-109.714c0-9.714-8.571-18.286-18.286-18.286h-694.857c-9.714 0-18.286 8.571-18.286 18.286v109.714c0 9.714 8.571 18.286 18.286 18.286h694.857c9.714 0 18.286-8.571 18.286-18.286z" />
<glyph unicode="&#xf0e5;" glyph-name="comment-o" data-tags="comment-o" d="M512 804.571c-237.714 0-438.857-133.714-438.857-292.571 0-85.143 57.143-166.286 156-222.286l49.714-28.571-15.429-54.857c-10.857-40.571-25.143-72-40-98.286 57.714 24 110.286 56.571 157.143 97.714l24.571 21.714 32.571-3.429c24.571-2.857 49.714-4.571 74.286-4.571 237.714 0 438.857 133.714 438.857 292.571s-201.143 292.571-438.857 292.571zM1024 512c0-202.286-229.143-365.714-512-365.714-28 0-56 1.714-82.857 4.571-74.857-66.286-164-113.143-262.857-138.286-20.571-5.714-42.857-9.714-65.143-12.571h-2.857c-11.429 0-21.714 9.143-24.571 21.714v0.571c-2.857 14.286 6.857 22.857 15.429 33.143 36 40.571 77.143 74.857 104 170.286-117.714 66.857-193.143 170.286-193.143 286.286 0 202.286 229.143 365.714 512 365.714v0c282.857 0 512-163.429 512-365.714z" />
<glyph unicode="&#xf0e7;" glyph-name="bolt, flash" data-tags="bolt, flash" horiz-adv-x="513" d="M505.714 700.571c6.286-6.857 8-16.571 4-25.143l-308.571-661.143c-4.571-8.571-13.714-14.286-24-14.286-2.286 0-5.143 0.571-8 1.143-12.571 4-20 16-17.143 28l112.571 461.714-232-57.714c-2.286-0.571-4.571-0.571-6.857-0.571-6.286 0-13.143 2.286-17.714 6.286-6.857 5.714-9.143 14.286-7.429 22.286l114.857 471.429c2.857 10.857 13.143 18.286 25.143 18.286h187.429c14.286 0 25.714-10.857 25.714-24 0-3.429-1.143-6.857-2.857-10.286l-97.714-264.571 226.286 56c2.286 0.571 4.571 1.143 6.857 1.143 7.429 0 14.286-3.429 19.429-8.571z" />
<glyph unicode="&#xf0eb;" glyph-name="lightbulb-o" data-tags="lightbulb-o" horiz-adv-x="585" d="M420.571 694.857c0-9.714-8.571-18.286-18.286-18.286s-18.286 8.571-18.286 18.286c0 39.429-61.143 54.857-91.429 54.857-9.714 0-18.286 8.571-18.286 18.286s8.571 18.286 18.286 18.286c53.143 0 128-28 128-91.429zM512 694.857c0 114.286-116 182.857-219.429 182.857s-219.429-68.571-219.429-182.857c0-36.571 14.857-74.857 38.857-102.857 10.857-12.571 23.429-24.571 34.857-37.714 40.571-48.571 74.857-105.714 80.571-170.286h130.286c5.714 64.571 40 121.714 80.571 170.286 11.429 13.143 24 25.143 34.857 37.714 24 28 38.857 66.286 38.857 102.857zM585.143 694.857c0-58.857-19.429-109.714-58.857-153.143s-91.429-104.571-96-165.714c16.571-9.714 26.857-28 26.857-46.857 0-13.714-5.143-26.857-14.286-36.571 9.143-9.714 14.286-22.857 14.286-36.571 0-18.857-9.714-36-25.714-46.286 4.571-8 7.429-17.714 7.429-26.857 0-37.143-29.143-54.857-62.286-54.857-14.857-33.143-48-54.857-84-54.857s-69.143 21.714-84 54.857c-33.143 0-62.286 17.714-62.286 54.857 0 9.143 2.857 18.857 7.429 26.857-16 10.286-25.714 27.429-25.714 46.286 0 13.714 5.143 26.857 14.286 36.571-9.143 9.714-14.286 22.857-14.286 36.571 0 18.857 10.286 37.143 26.857 46.857-4.571 61.143-56.571 122.286-96 165.714s-58.857 94.286-58.857 153.143c0 155.429 148 256 292.571 256s292.571-100.571 292.571-256z" />
<glyph unicode="&#xf10d;" glyph-name="quote-left" data-tags="quote-left" horiz-adv-x="951" d="M438.857 475.429v-219.429c0-60.571-49.143-109.714-109.714-109.714h-219.429c-60.571 0-109.714 49.143-109.714 109.714v402.286c0 161.143 131.429 292.571 292.571 292.571h36.571c20 0 36.571-16.571 36.571-36.571v-73.143c0-20-16.571-36.571-36.571-36.571h-36.571c-80.571 0-146.286-65.714-146.286-146.286v-18.286c0-30.286 24.571-54.857 54.857-54.857h128c60.571 0 109.714-49.143 109.714-109.714zM950.857 475.429v-219.429c0-60.571-49.143-109.714-109.714-109.714h-219.429c-60.571 0-109.714 49.143-109.714 109.714v402.286c0 161.143 131.429 292.571 292.571 292.571h36.571c20 0 36.571-16.571 36.571-36.571v-73.143c0-20-16.571-36.571-36.571-36.571h-36.571c-80.571 0-146.286-65.714-146.286-146.286v-18.286c0-30.286 24.571-54.857 54.857-54.857h128c60.571 0 109.714-49.143 109.714-109.714z" />
<glyph unicode="&#xf113;" glyph-name="github-alt" data-tags="github-alt" horiz-adv-x="951" d="M365.714 329.143c0-41.714-21.714-109.714-73.143-109.714s-73.143 68-73.143 109.714 21.714 109.714 73.143 109.714 73.143-68 73.143-109.714zM731.429 329.143c0-41.714-21.714-109.714-73.143-109.714s-73.143 68-73.143 109.714 21.714 109.714 73.143 109.714 73.143-68 73.143-109.714zM822.857 329.143c0 87.429-53.143 164.571-146.286 164.571-37.714 0-73.714-6.857-111.429-12-29.714-4.571-59.429-6.286-89.714-6.286s-60 1.714-89.714 6.286c-37.143 5.143-73.714 12-111.429 12-93.143 0-146.286-77.143-146.286-164.571 0-174.857 160-201.714 299.429-201.714h96c139.429 0 299.429 26.857 299.429 201.714zM950.857 429.714c0-63.429-6.286-130.857-34.857-189.143-75.429-152.571-282.857-167.429-431.429-167.429-150.857 0-370.857 13.143-449.143 167.429-29.143 57.714-35.429 125.714-35.429 189.143 0 83.429 22.857 162.286 77.714 226.286-10.286 31.429-15.429 64.571-15.429 97.143 0 42.857 9.714 85.714 29.143 124.571 90.286 0 148-39.429 216.571-93.143 57.714 13.714 117.143 20 176.571 20 53.714 0 108-5.714 160-18.286 68 53.143 125.714 91.429 214.857 91.429 19.429-38.857 29.143-81.714 29.143-124.571 0-32.571-5.143-65.143-15.429-96 54.857-64.571 77.714-144 77.714-227.429z" />
<glyph unicode="&#xf118;" glyph-name="smile-o" data-tags="smile-o" horiz-adv-x="878" d="M648 409.714c-28.571-92-112.571-153.714-209.143-153.714s-180.571 61.714-209.143 153.714c-6.286 19.429 4.571 39.429 24 45.714 18.857 6.286 39.429-4.571 45.714-24 18.857-61.143 75.429-102.286 139.429-102.286s120.571 41.143 139.429 102.286c6.286 19.429 26.857 30.286 46.286 24 18.857-6.286 29.714-26.286 23.429-45.714zM365.714 658.286c0-40.571-32.571-73.143-73.143-73.143s-73.143 32.571-73.143 73.143 32.571 73.143 73.143 73.143 73.143-32.571 73.143-73.143zM658.286 658.286c0-40.571-32.571-73.143-73.143-73.143s-73.143 32.571-73.143 73.143 32.571 73.143 73.143 73.143 73.143-32.571 73.143-73.143zM804.571 512c0 201.714-164 365.714-365.714 365.714s-365.714-164-365.714-365.714 164-365.714 365.714-365.714 365.714 164 365.714 365.714zM877.714 512c0-242.286-196.571-438.857-438.857-438.857s-438.857 196.571-438.857 438.857 196.571 438.857 438.857 438.857 438.857-196.571 438.857-438.857z" />
<glyph unicode="&#xf119;" glyph-name="frown-o" data-tags="frown-o" horiz-adv-x="878" d="M648 321.714c6.286-19.429-4.571-39.429-23.429-45.714-19.429-6.286-40 4.571-46.286 24-18.857 61.143-75.429 102.286-139.429 102.286s-120.571-41.143-139.429-102.286c-6.286-19.429-26.857-30.286-45.714-24-19.429 6.286-30.286 26.286-24 45.714 28.571 92 112.571 153.714 209.143 153.714s180.571-61.714 209.143-153.714zM365.714 658.286c0-40.571-32.571-73.143-73.143-73.143s-73.143 32.571-73.143 73.143 32.571 73.143 73.143 73.143 73.143-32.571 73.143-73.143zM658.286 658.286c0-40.571-32.571-73.143-73.143-73.143s-73.143 32.571-73.143 73.143 32.571 73.143 73.143 73.143 73.143-32.571 73.143-73.143zM804.571 512c0 201.714-164 365.714-365.714 365.714s-365.714-164-365.714-365.714 164-365.714 365.714-365.714 365.714 164 365.714 365.714zM877.714 512c0-242.286-196.571-438.857-438.857-438.857s-438.857 196.571-438.857 438.857 196.571 438.857 438.857 438.857 438.857-196.571 438.857-438.857z" />
<glyph unicode="&#xf11a;" glyph-name="meh-o" data-tags="meh-o" horiz-adv-x="878" d="M658.286 402.286c0-20-16.571-36.571-36.571-36.571h-365.714c-20 0-36.571 16.571-36.571 36.571s16.571 36.571 36.571 36.571h365.714c20 0 36.571-16.571 36.571-36.571zM365.714 658.286c0-40.571-32.571-73.143-73.143-73.143s-73.143 32.571-73.143 73.143 32.571 73.143 73.143 73.143 73.143-32.571 73.143-73.143zM658.286 658.286c0-40.571-32.571-73.143-73.143-73.143s-73.143 32.571-73.143 73.143 32.571 73.143 73.143 73.143 73.143-32.571 73.143-73.143zM804.571 512c0 201.714-164 365.714-365.714 365.714s-365.714-164-365.714-365.714 164-365.714 365.714-365.714 365.714 164 365.714 365.714zM877.714 512c0-242.286-196.571-438.857-438.857-438.857s-438.857 196.571-438.857 438.857 196.571 438.857 438.857 438.857 438.857-196.571 438.857-438.857z" />
<glyph unicode="&#xf11b;" glyph-name="gamepad" data-tags="gamepad" horiz-adv-x="1097" d="M475.429 402.286v73.143c0 10.286-8 18.286-18.286 18.286h-109.714v109.714c0 10.286-8 18.286-18.286 18.286h-73.143c-10.286 0-18.286-8-18.286-18.286v-109.714h-109.714c-10.286 0-18.286-8-18.286-18.286v-73.143c0-10.286 8-18.286 18.286-18.286h109.714v-109.714c0-10.286 8-18.286 18.286-18.286h73.143c10.286 0 18.286 8 18.286 18.286v109.714h109.714c10.286 0 18.286 8 18.286 18.286zM804.571 365.714c0 40.571-32.571 73.143-73.143 73.143s-73.143-32.571-73.143-73.143 32.571-73.143 73.143-73.143 73.143 32.571 73.143 73.143zM950.857 512c0 40.571-32.571 73.143-73.143 73.143s-73.143-32.571-73.143-73.143 32.571-73.143 73.143-73.143 73.143 32.571 73.143 73.143zM1097.143 438.857c0-161.714-130.857-292.571-292.571-292.571-74.286 0-141.714 28-193.143 73.143h-125.714c-51.429-45.143-118.857-73.143-193.143-73.143-161.714 0-292.571 130.857-292.571 292.571s130.857 292.571 292.571 292.571h512c161.714 0 292.571-130.857 292.571-292.571z" />
<glyph unicode="&#xf11c;" glyph-name="keyboard-o" data-tags="keyboard-o" horiz-adv-x="1097" d="M219.429 356.571v-54.857c0-5.143-4-9.143-9.143-9.143h-54.857c-5.143 0-9.143 4-9.143 9.143v54.857c0 5.143 4 9.143 9.143 9.143h54.857c5.143 0 9.143-4 9.143-9.143zM292.571 502.857v-54.857c0-5.143-4-9.143-9.143-9.143h-128c-5.143 0-9.143 4-9.143 9.143v54.857c0 5.143 4 9.143 9.143 9.143h128c5.143 0 9.143-4 9.143-9.143zM219.429 649.143v-54.857c0-5.143-4-9.143-9.143-9.143h-54.857c-5.143 0-9.143 4-9.143 9.143v54.857c0 5.143 4 9.143 9.143 9.143h54.857c5.143 0 9.143-4 9.143-9.143zM804.571 356.571v-54.857c0-5.143-4-9.143-9.143-9.143h-493.714c-5.143 0-9.143 4-9.143 9.143v54.857c0 5.143 4 9.143 9.143 9.143h493.714c5.143 0 9.143-4 9.143-9.143zM438.857 502.857v-54.857c0-5.143-4-9.143-9.143-9.143h-54.857c-5.143 0-9.143 4-9.143 9.143v54.857c0 5.143 4 9.143 9.143 9.143h54.857c5.143 0 9.143-4 9.143-9.143zM365.714 649.143v-54.857c0-5.143-4-9.143-9.143-9.143h-54.857c-5.143 0-9.143 4-9.143 9.143v54.857c0 5.143 4 9.143 9.143 9.143h54.857c5.143 0 9.143-4 9.143-9.143zM585.143 502.857v-54.857c0-5.143-4-9.143-9.143-9.143h-54.857c-5.143 0-9.143 4-9.143 9.143v54.857c0 5.143 4 9.143 9.143 9.143h54.857c5.143 0 9.143-4 9.143-9.143zM512 649.143v-54.857c0-5.143-4-9.143-9.143-9.143h-54.857c-5.143 0-9.143 4-9.143 9.143v54.857c0 5.143 4 9.143 9.143 9.143h54.857c5.143 0 9.143-4 9.143-9.143zM731.429 502.857v-54.857c0-5.143-4-9.143-9.143-9.143h-54.857c-5.143 0-9.143 4-9.143 9.143v54.857c0 5.143 4 9.143 9.143 9.143h54.857c5.143 0 9.143-4 9.143-9.143zM950.857 356.571v-54.857c0-5.143-4-9.143-9.143-9.143h-54.857c-5.143 0-9.143 4-9.143 9.143v54.857c0 5.143 4 9.143 9.143 9.143h54.857c5.143 0 9.143-4 9.143-9.143zM658.286 649.143v-54.857c0-5.143-4-9.143-9.143-9.143h-54.857c-5.143 0-9.143 4-9.143 9.143v54.857c0 5.143 4 9.143 9.143 9.143h54.857c5.143 0 9.143-4 9.143-9.143zM804.571 649.143v-54.857c0-5.143-4-9.143-9.143-9.143h-54.857c-5.143 0-9.143 4-9.143 9.143v54.857c0 5.143 4 9.143 9.143 9.143h54.857c5.143 0 9.143-4 9.143-9.143zM950.857 649.143v-201.143c0-5.143-4-9.143-9.143-9.143h-128c-5.143 0-9.143 4-9.143 9.143v54.857c0 5.143 4 9.143 9.143 9.143h64v137.143c0 5.143 4 9.143 9.143 9.143h54.857c5.143 0 9.143-4 9.143-9.143zM1024 219.429v512h-950.857v-512h950.857zM1097.143 731.429v-512c0-40.571-32.571-73.143-73.143-73.143h-950.857c-40.571 0-73.143 32.571-73.143 73.143v512c0 40.571 32.571 73.143 73.143 73.143h950.857c40.571 0 73.143-32.571 73.143-73.143z" />
<glyph unicode="&#xf11d;" glyph-name="flag-o" data-tags="flag-o" horiz-adv-x="1061" d="M950.857 426.857v352c-45.714-24.571-109.714-52-174.857-52v0c-30.286 0-58.286 5.714-82.857 18.286-61.143 30.286-127.429 59.429-206.857 59.429-73.714 0-164-36-230.286-72.571v-342.286c75.429 34.857 171.429 64.571 247.429 64.571 88 0 145.143-29.143 206.286-59.429l16-8c16-8 35.429-12.571 57.714-12.571 63.429 0 132 33.714 167.429 52.571zM182.857 877.714c0-26.857-14.857-50.286-36.571-62.857v-723.429c0-10.286-8-18.286-18.286-18.286h-36.571c-10.286 0-18.286 8-18.286 18.286v723.429c-21.714 12.571-36.571 36-36.571 62.857 0 40.571 32.571 73.143 73.143 73.143s73.143-32.571 73.143-73.143zM1024 841.143v-436c0-13.714-8-26.286-20-32.571-2.286-1.143-5.714-2.857-9.714-5.143-36.571-19.429-122.857-66.286-210.857-66.286-33.714 0-64 6.857-90.286 20l-16 8c-57.714 29.143-103.429 52-173.714 52-82.286 0-198.286-42.857-265.143-83.429-5.714-3.429-12.571-5.143-18.857-5.143s-12.571 1.714-18.286 4.571c-11.429 6.857-18.286 18.857-18.286 32v424c0 12.571 6.857 24.571 17.714 31.429 36.571 21.714 165.714 93.143 285.714 93.143 95.429 0 173.143-34.857 238.857-66.857 14.857-7.429 32-10.857 50.857-10.857 67.429 0 141.714 42.857 177.143 64 7.429 4 13.714 7.429 17.714 9.714 11.429 5.714 24.571 5.143 35.429-1.143 10.857-6.857 17.714-18.857 17.714-31.429z" />
<glyph unicode="&#xf16c;" glyph-name="stack-overflow" data-tags="stack-overflow" horiz-adv-x="878" d="M736.571 91.429h-638.857v274.286h-91.429v-365.714h821.714v365.714h-91.429v-274.286zM198.286 390.857l18.857 89.714 447.429-94.286-18.857-89.143zM257.143 604.571l38.286 83.429 414.286-193.714-38.286-82.857zM372 808l58.286 70.286 350.857-293.143-58.286-70.286zM598.857 1024l272.571-366.286-73.143-54.857-272.571 366.286zM188.571 183.429v90.857h457.143v-90.857h-457.143z" />
<glyph unicode="&#xf188;" glyph-name="bug" data-tags="bug" horiz-adv-x="951" d="M932.571 475.429c0-20-16.571-36.571-36.571-36.571h-128c0-71.429-15.429-125.143-38.286-165.714l118.857-119.429c14.286-14.286 14.286-37.143 0-51.429-6.857-7.429-16.571-10.857-25.714-10.857s-18.857 3.429-25.714 10.857l-113.143 112.571s-74.857-68.571-172-68.571v512h-73.143v-512c-103.429 0-178.857 75.429-178.857 75.429l-104.571-118.286c-7.429-8-17.143-12-27.429-12-8.571 0-17.143 2.857-24.571 9.143-14.857 13.714-16 36.571-2.857 52l115.429 129.714c-20 39.429-33.143 90.286-33.143 156.571h-128c-20 0-36.571 16.571-36.571 36.571s16.571 36.571 36.571 36.571h128v168l-98.857 98.857c-14.286 14.286-14.286 37.143 0 51.429s37.143 14.286 51.429 0l98.857-98.857h482.286l98.857 98.857c14.286 14.286 37.143 14.286 51.429 0s14.286-37.143 0-51.429l-98.857-98.857v-168h128c20 0 36.571-16.571 36.571-36.571zM658.286 804.571h-365.714c0 101.143 81.714 182.857 182.857 182.857s182.857-81.714 182.857-182.857z" />
<glyph unicode="&#xf1b0;" glyph-name="paw" data-tags="paw" horiz-adv-x="951" d="M445.714 754.286c0-64-33.143-140-106.857-140-92.571 0-148.571 116.571-148.571 196.571 0 64 33.143 140 106.857 140 93.143 0 148.571-116.571 148.571-196.571zM250.286 478.286c0-55.429-29.143-113.143-92-113.143-91.429 0-158.286 112-158.286 194.857 0 55.429 29.714 113.714 92 113.714 91.429 0 158.286-112.571 158.286-195.429zM475.429 493.714c140 0 329.143-201.714 329.143-336.571 0-72.571-59.429-84-117.714-84-76.571 0-138.286 51.429-211.429 51.429-76.571 0-141.714-50.857-224.571-50.857-55.429 0-104.571 18.857-104.571 83.429 0 135.429 189.143 336.571 329.143 336.571zM612 614.286c-73.714 0-106.857 76-106.857 140 0 80 55.429 196.571 148.571 196.571 73.714 0 106.857-76 106.857-140 0-80-56-196.571-148.571-196.571zM858.857 673.714c62.286 0 92-58.286 92-113.714 0-82.857-66.857-194.857-158.286-194.857-62.857 0-92 57.714-92 113.143 0 82.857 66.857 195.429 158.286 195.429z" />
<glyph unicode="&#xf1c0;" glyph-name="database" data-tags="database" horiz-adv-x="878" d="M438.857 585.143c172 0 344.571 30.857 438.857 97.143v-97.143c0-80.571-196.571-146.286-438.857-146.286s-438.857 65.714-438.857 146.286v97.143c94.286-66.286 266.857-97.143 438.857-97.143zM438.857 146.286c172 0 344.571 30.857 438.857 97.143v-97.143c0-80.571-196.571-146.286-438.857-146.286s-438.857 65.714-438.857 146.286v97.143c94.286-66.286 266.857-97.143 438.857-97.143zM438.857 365.714c172 0 344.571 30.857 438.857 97.143v-97.143c0-80.571-196.571-146.286-438.857-146.286s-438.857 65.714-438.857 146.286v97.143c94.286-66.286 266.857-97.143 438.857-97.143zM438.857 1024c242.286 0 438.857-65.714 438.857-146.286v-73.143c0-80.571-196.571-146.286-438.857-146.286s-438.857 65.714-438.857 146.286v73.143c0 80.571 196.571 146.286 438.857 146.286z" />
<glyph unicode="&#xf1dd;" glyph-name="paragraph" data-tags="paragraph" horiz-adv-x="744" d="M730.286 916v-41.714c0-19.429-15.429-53.143-34.857-53.143-9.714 0-21.143 1.714-30.857-0.571-9.143-2.286-16-8.571-18.286-17.714-2.857-10.857-1.714-24.571-1.714-36.571v-658.286c0-19.429-15.429-34.857-34.857-34.857h-61.714c-19.429 0-34.857 15.429-34.857 34.857v696h-81.714v-696c0-19.429-15.429-34.857-34.857-34.857h-61.714c-19.429 0-34.857 15.429-34.857 34.857v283.429c-55.429 4.571-102.857 16-140 33.714-48 22.286-84.571 56.571-109.714 102.286-24 44-36.571 93.714-36.571 148 0 63.429 17.143 118.286 50.286 163.429 33.714 45.143 73.714 75.429 119.429 90.857 42.857 14.286 133.143 21.143 238.286 21.143h273.714c19.429 0 34.857-15.429 34.857-34.857z" />
<glyph unicode="&#xf1de;" glyph-name="sliders" data-tags="sliders" horiz-adv-x="878" d="M201.143 219.429v-73.143h-201.143v73.143h201.143zM402.286 292.571c20 0 36.571-16.571 36.571-36.571v-146.286c0-20-16.571-36.571-36.571-36.571h-146.286c-20 0-36.571 16.571-36.571 36.571v146.286c0 20 16.571 36.571 36.571 36.571h146.286zM493.714 512v-73.143h-493.714v73.143h493.714zM128 804.571v-73.143h-128v73.143h128zM877.714 219.429v-73.143h-420.571v73.143h420.571zM329.143 877.714c20 0 36.571-16.571 36.571-36.571v-146.286c0-20-16.571-36.571-36.571-36.571h-146.286c-20 0-36.571 16.571-36.571 36.571v146.286c0 20 16.571 36.571 36.571 36.571h146.286zM694.857 585.143c20 0 36.571-16.571 36.571-36.571v-146.286c0-20-16.571-36.571-36.571-36.571h-146.286c-20 0-36.571 16.571-36.571 36.571v146.286c0 20 16.571 36.571 36.571 36.571h146.286zM877.714 512v-73.143h-128v73.143h128zM877.714 804.571v-73.143h-493.714v73.143h493.714z" />
<glyph unicode="&#xf1e6;" glyph-name="plug" data-tags="plug" horiz-adv-x="1031" d="M1002.857 765.143c28-28.571 28-74.857 0-103.429l-229.143-228.571 85.714-85.714-91.429-91.429c-125.143-125.143-316-142.857-457.714-49.143l-206.857-206.857h-103.429v103.429l206.857 206.857c-93.714 141.714-76 332.571 49.143 457.714l91.429 91.429 85.714-85.714 228.571 229.143c28.571 28 74.857 28 103.429 0 28.571-28.571 28.571-75.429 0-103.429l-228.571-229.143 133.714-133.714 229.143 228.571c28.571 28.571 74.857 28.571 103.429 0z" />
<glyph unicode="&#xf1ea;" glyph-name="newspaper-o" data-tags="newspaper-o" horiz-adv-x="1170" d="M585.143 731.429h-219.429v-219.429h219.429v219.429zM658.286 365.714v-73.143h-365.714v73.143h365.714zM658.286 804.571v-365.714h-365.714v365.714h365.714zM1024 365.714v-73.143h-292.571v73.143h292.571zM1024 512v-73.143h-292.571v73.143h292.571zM1024 658.286v-73.143h-292.571v73.143h292.571zM1024 804.571v-73.143h-292.571v73.143h292.571zM146.286 256v548.571h-73.143v-548.571c0-20 16.571-36.571 36.571-36.571s36.571 16.571 36.571 36.571zM1097.143 256v621.714h-877.714v-621.714c0-12.571-2.286-25.143-6.286-36.571h847.429c20 0 36.571 16.571 36.571 36.571zM1170.286 950.857v-694.857c0-60.571-49.143-109.714-109.714-109.714h-950.857c-60.571 0-109.714 49.143-109.714 109.714v621.714h146.286v73.143h1024z" />
<glyph unicode="&#xf1eb;" glyph-name="wifi" data-tags="wifi" horiz-adv-x="1170" d="M585.143 153.714c-14.857 0-94.857 80-94.857 95.429 0 28 73.143 43.429 94.857 43.429s94.857-15.429 94.857-43.429c0-15.429-80-95.429-94.857-95.429zM739.429 308.571c-8 0-70.286 57.143-154.286 57.143-84.571 0-145.714-57.143-154.286-57.143-13.714 0-96.571 82.286-96.571 96 0 5.143 2.286 9.714 5.714 13.143 61.143 60.571 160.571 94.286 245.143 94.286s184-33.714 245.143-94.286c3.429-3.429 5.714-8 5.714-13.143 0-13.714-82.857-96-96.571-96zM895.429 464c-4.571 0-9.714 2.286-13.143 4.571-94.286 73.143-173.714 116.571-297.143 116.571-172.571 0-304-121.143-310.286-121.143-13.143 0-95.429 82.286-95.429 96 0 4.571 2.286 9.143 5.714 12.571 102.286 102.286 256.571 158.857 400 158.857s297.714-56.571 400-158.857c3.429-3.429 5.714-8 5.714-12.571 0-13.714-82.286-96-95.429-96zM1050.286 618.857c-4.571 0-9.143 2.286-12.571 5.143-132 116-274.286 180.571-452.571 180.571s-320.571-64.571-452.571-180.571c-3.429-2.857-8-5.143-12.571-5.143-13.143 0-96 82.286-96 96 0 5.143 2.286 9.714 5.714 13.143 144.571 143.429 353.143 222.857 555.429 222.857s410.857-79.429 555.429-222.857c3.429-3.429 5.714-8 5.714-13.143 0-13.714-82.857-96-96-96z" />
<glyph unicode="&#xf1ec;" glyph-name="calculator" data-tags="calculator" horiz-adv-x="951" d="M219.429 146.286c0 40.571-32.571 73.143-73.143 73.143s-73.143-32.571-73.143-73.143 32.571-73.143 73.143-73.143 73.143 32.571 73.143 73.143zM438.857 146.286c0 40.571-32.571 73.143-73.143 73.143s-73.143-32.571-73.143-73.143 32.571-73.143 73.143-73.143 73.143 32.571 73.143 73.143zM219.429 365.714c0 40.571-32.571 73.143-73.143 73.143s-73.143-32.571-73.143-73.143 32.571-73.143 73.143-73.143 73.143 32.571 73.143 73.143zM658.286 146.286c0 40.571-32.571 73.143-73.143 73.143s-73.143-32.571-73.143-73.143 32.571-73.143 73.143-73.143 73.143 32.571 73.143 73.143zM438.857 365.714c0 40.571-32.571 73.143-73.143 73.143s-73.143-32.571-73.143-73.143 32.571-73.143 73.143-73.143 73.143 32.571 73.143 73.143zM219.429 585.143c0 40.571-32.571 73.143-73.143 73.143s-73.143-32.571-73.143-73.143 32.571-73.143 73.143-73.143 73.143 32.571 73.143 73.143zM658.286 365.714c0 40.571-32.571 73.143-73.143 73.143s-73.143-32.571-73.143-73.143 32.571-73.143 73.143-73.143 73.143 32.571 73.143 73.143zM438.857 585.143c0 40.571-32.571 73.143-73.143 73.143s-73.143-32.571-73.143-73.143 32.571-73.143 73.143-73.143 73.143 32.571 73.143 73.143zM877.714 146.286v219.429c0 40-33.143 73.143-73.143 73.143v0c-40 0-73.143-33.143-73.143-73.143v-219.429c0-40 33.143-73.143 73.143-73.143v0c40 0 73.143 33.143 73.143 73.143zM658.286 585.143c0 40.571-32.571 73.143-73.143 73.143s-73.143-32.571-73.143-73.143 32.571-73.143 73.143-73.143 73.143 32.571 73.143 73.143zM877.714 768v146.286c0 20-16.571 36.571-36.571 36.571h-731.429c-20 0-36.571-16.571-36.571-36.571v-146.286c0-20 16.571-36.571 36.571-36.571h731.429c20 0 36.571 16.571 36.571 36.571zM877.714 585.143c0 40.571-32.571 73.143-73.143 73.143s-73.143-32.571-73.143-73.143 32.571-73.143 73.143-73.143 73.143 32.571 73.143 73.143zM950.857 950.857v-877.714c0-40-33.143-73.143-73.143-73.143h-804.571c-40 0-73.143 33.143-73.143 73.143v877.714c0 40 33.143 73.143 73.143 73.143h804.571c40 0 73.143-33.143 73.143-73.143z" />
<glyph unicode="&#xf1f8;" glyph-name="trash" data-tags="trash" horiz-adv-x="805" d="M292.571 237.714v402.286c0 10.286-8 18.286-18.286 18.286h-36.571c-10.286 0-18.286-8-18.286-18.286v-402.286c0-10.286 8-18.286 18.286-18.286h36.571c10.286 0 18.286 8 18.286 18.286zM438.857 237.714v402.286c0 10.286-8 18.286-18.286 18.286h-36.571c-10.286 0-18.286-8-18.286-18.286v-402.286c0-10.286 8-18.286 18.286-18.286h36.571c10.286 0 18.286 8 18.286 18.286zM585.143 237.714v402.286c0 10.286-8 18.286-18.286 18.286h-36.571c-10.286 0-18.286-8-18.286-18.286v-402.286c0-10.286 8-18.286 18.286-18.286h36.571c10.286 0 18.286 8 18.286 18.286zM274.286 804.571h256l-27.429 66.857c-1.714 2.286-6.857 5.714-9.714 6.286h-181.143c-3.429-0.571-8-4-9.714-6.286zM804.571 786.286v-36.571c0-10.286-8-18.286-18.286-18.286h-54.857v-541.714c0-62.857-41.143-116.571-91.429-116.571h-475.429c-50.286 0-91.429 51.429-91.429 114.286v544h-54.857c-10.286 0-18.286 8-18.286 18.286v36.571c0 10.286 8 18.286 18.286 18.286h176.571l40 95.429c11.429 28 45.714 50.857 76 50.857h182.857c30.286 0 64.571-22.857 76-50.857l40-95.429h176.571c10.286 0 18.286-8 18.286-18.286z" />
<glyph unicode="&#xf1fc;" glyph-name="paint-brush" data-tags="paint-brush" horiz-adv-x="1023" d="M922.857 1024c52 0 100-38.857 100-93.143 0-30.286-12-59.429-25.714-86.286-44.571-84.571-194.286-364-265.714-429.714-34.857-32.571-76-52-124.571-52-96.571 0-175.429 82.286-175.429 178.286 0 45.714 18.857 90.286 52.571 121.143l364.571 330.857c20 18.286 46.286 30.857 74.286 30.857zM403.429 433.143c29.714-57.714 84-101.143 146.857-117.714l0.571-40.571c3.429-162.857-109.714-274.857-273.143-274.857-193.714 0-277.714 154.286-277.714 329.714 21.143-14.286 94.857-73.143 118.857-73.143 14.286 0 26.286 8 31.429 21.143 48.571 126.857 124.571 149.714 253.143 155.429z" />
<glyph unicode="&#xf1fe;" glyph-name="area-chart" data-tags="area-chart" horiz-adv-x="1170" d="M1170.286 146.286v-73.143h-1170.286v877.714h73.143v-804.571h1097.143zM950.857 731.429l146.286-512h-950.857v329.143l256 329.143 329.143-329.143z" />
<glyph unicode="&#xf201;" glyph-name="line-chart" data-tags="line-chart" horiz-adv-x="1170" d="M1170.286 146.286v-73.143h-1170.286v877.714h73.143v-804.571h1097.143zM1097.143 859.429v-248.571c0-16-19.429-24.571-31.429-12.571l-69.143 69.143-361.714-361.714c-7.429-7.429-18.857-7.429-26.286 0l-133.143 133.143-237.714-237.714-109.714 109.714 334.286 334.286c7.429 7.429 18.857 7.429 26.286 0l133.143-133.143 265.143 265.143-69.143 69.143c-12 12-3.429 31.429 12.571 31.429h248.571c10.286 0 18.286-8 18.286-18.286z" />
<glyph unicode="&#xf233;" glyph-name="server" data-tags="server" d="M73.143 219.429h585.143v73.143h-585.143v-73.143zM73.143 512h585.143v73.143h-585.143v-73.143zM969.143 256c0 30.286-24.571 54.857-54.857 54.857s-54.857-24.571-54.857-54.857 24.571-54.857 54.857-54.857 54.857 24.571 54.857 54.857zM73.143 804.571h585.143v73.143h-585.143v-73.143zM969.143 548.571c0 30.286-24.571 54.857-54.857 54.857s-54.857-24.571-54.857-54.857 24.571-54.857 54.857-54.857 54.857 24.571 54.857 54.857zM969.143 841.143c0 30.286-24.571 54.857-54.857 54.857s-54.857-24.571-54.857-54.857 24.571-54.857 54.857-54.857 54.857 24.571 54.857 54.857zM1024 365.714v-219.429h-1024v219.429h1024zM1024 658.286v-219.429h-1024v219.429h1024zM1024 950.857v-219.429h-1024v219.429h1024z" />
<glyph unicode="&#xf269;" glyph-name="firefox" data-tags="firefox" horiz-adv-x="977" d="M516 0c-220.571 0-396 129.143-476.571 313.714-90.286 205.143-18.286 533.714 142.286 678.857l-6.286-160.571c8 10.286 69.143 13.143 78.857 0 33.143 63.429 140 110.857 225.714 112.571-32.571-27.429-108-127.429-101.714-178.286 41.714-13.143 105.714-13.714 139.429-16 10.286-5.714 8.571-40.571-12-69.143 0 0-26.857-37.143-99.429-50.286l8.571-108-79.429 38.286c-25.714-65.143 36-122.857 100-112 70.857 12 96 58.286 145.714 55.429 49.143-2.857 68.571-30.286 62.286-56 0 0-8-30.857-61.143-25.714-45.143-71.429-105.143-102.857-202.286-94.286 147.429-122.286 346.286-11.429 396.571 88.571 50.286 99.429 6.286 247.429-44 289.143 59.429-25.714 100.571-52 122.286-109.714 11.429 128-47.429 273.143-152.571 358.286 197.714-57.714 318.286-210.857 321.714-455.429s-216.571-499.429-508-499.429z" />
<glyph unicode="&#xf270;" glyph-name="amazon" data-tags="amazon" horiz-adv-x="1020" d="M886.286 180.571c17.143 8.571 30.286-4.571 12.571-27.429s-160-153.143-398.857-153.143-421.714 163.429-477.714 230.857c-15.429 17.714 2.286 25.714 12.571 18.857 167.429-101.714 429.143-269.143 851.429-69.143zM1004.571 246.286c8.571-11.429 0-61.714-14.857-98.286-14.857-36-36.571-61.143-48.571-70.857-12.571-10.286-21.714-6.286-14.857 8.571s44 106.286 29.143 125.714c-14.857 18.857-84.571 9.714-109.714 7.429-24.571-2.286-29.714-4.571-32 0.571-5.143 13.143 49.714 35.429 85.714 40 36 4 93.714 1.714 105.143-13.143zM779.429 499.429c0-62.857 73.714-120.571 73.714-120.571l-129.714-128c-50.857 48-89.143 88-89.143 88-5.714 5.714-10.286 12.571-14.286 18.857-103.429-161.714-419.429-151.429-419.429 98.857 0 233.143 276 264.571 387.429 268.571v72.571c0 15.429 5.714 85.714-81.143 85.714 0 0-86.857 0-124-113.143l-168 15.429c0 112.571 106.857 238.286 308 238.286 200.571 0 256.571-130.286 256.571-188v-336.571zM395.429 487.429c0-116 192.571-143.429 192.571 39.429v92.571c-77.143-2.286-192.571-24-192.571-132z" />
<glyph unicode="&#xf283;" glyph-name="credit-card-alt" data-tags="credit-card-alt" horiz-adv-x="1317" d="M0 164.571v347.429h1316.571v-347.429c0-50.286-41.143-91.429-91.429-91.429h-1133.714c-50.286 0-91.429 41.143-91.429 91.429zM365.714 292.571v-73.143h219.429v73.143h-219.429zM146.286 292.571v-73.143h146.286v73.143h-146.286zM1225.143 950.857c50.286 0 91.429-41.143 91.429-91.429v-128h-1316.571v128c0 50.286 41.143 91.429 91.429 91.429h1133.714z" />
<glyph unicode="&#xf2bc;" glyph-name="address-card-o, vcard-o" data-tags="address-card-o, vcard-o" horiz-adv-x="1170" d="M585.143 377.714c0-49.714-32.571-85.143-73.143-85.143h-292.571c-40.571 0-73.143 35.429-73.143 85.143 0 88.571 21.714 186.857 112 186.857 28-16 65.714-43.429 107.429-43.429s79.429 27.429 107.429 43.429c90.286 0 112-98.286 112-186.857zM495.429 674.857c0-72-58.286-129.714-129.714-129.714s-129.714 57.714-129.714 129.714c0 71.429 58.286 129.714 129.714 129.714s129.714-58.286 129.714-129.714zM1024 420.571v-36.571c0-10.286-8-18.286-18.286-18.286h-329.143c-10.286 0-18.286 8-18.286 18.286v36.571c0 10.286 8 18.286 18.286 18.286h329.143c10.286 0 18.286-8 18.286-18.286zM1024 564.571v-32c0-11.429-9.143-20.571-20.571-20.571h-324.571c-11.429 0-20.571 9.143-20.571 20.571v32c0 11.429 9.143 20.571 20.571 20.571h324.571c11.429 0 20.571-9.143 20.571-20.571zM1024 713.143v-36.571c0-10.286-8-18.286-18.286-18.286h-329.143c-10.286 0-18.286 8-18.286 18.286v36.571c0 10.286 8 18.286 18.286 18.286h329.143c10.286 0 18.286-8 18.286-18.286zM1097.143 164.571v694.857c0 9.714-8.571 18.286-18.286 18.286h-987.429c-9.714 0-18.286-8.571-18.286-18.286v-694.857c0-9.714 8.571-18.286 18.286-18.286h201.143v54.857c0 10.286 8 18.286 18.286 18.286h36.571c10.286 0 18.286-8 18.286-18.286v-54.857h438.857v54.857c0 10.286 8 18.286 18.286 18.286h36.571c10.286 0 18.286-8 18.286-18.286v-54.857h201.143c9.714 0 18.286 8.571 18.286 18.286zM1170.286 859.429v-694.857c0-50.286-41.143-91.429-91.429-91.429h-987.429c-50.286 0-91.429 41.143-91.429 91.429v694.857c0 50.286 41.143 91.429 91.429 91.429h987.429c50.286 0 91.429-41.143 91.429-91.429z" />
<glyph unicode="&#xf2db;" glyph-name="microchip" data-tags="microchip" horiz-adv-x="878" d="M109.714 292.571v-73.143h-64c-5.143 0-9.143 4-9.143 9.143v9.143h-27.429c-5.143 0-9.143 4-9.143 9.143v18.286c0 5.143 4 9.143 9.143 9.143h27.429v9.143c0 5.143 4 9.143 9.143 9.143h64zM109.714 438.857v-73.143h-64c-5.143 0-9.143 4-9.143 9.143v9.143h-27.429c-5.143 0-9.143 4-9.143 9.143v18.286c0 5.143 4 9.143 9.143 9.143h27.429v9.143c0 5.143 4 9.143 9.143 9.143h64zM109.714 585.143v-73.143h-64c-5.143 0-9.143 4-9.143 9.143v9.143h-27.429c-5.143 0-9.143 4-9.143 9.143v18.286c0 5.143 4 9.143 9.143 9.143h27.429v9.143c0 5.143 4 9.143 9.143 9.143h64zM109.714 731.429v-73.143h-64c-5.143 0-9.143 4-9.143 9.143v9.143h-27.429c-5.143 0-9.143 4-9.143 9.143v18.286c0 5.143 4 9.143 9.143 9.143h27.429v9.143c0 5.143 4 9.143 9.143 9.143h64zM109.714 877.714v-73.143h-64c-5.143 0-9.143 4-9.143 9.143v9.143h-27.429c-5.143 0-9.143 4-9.143 9.143v18.286c0 5.143 4 9.143 9.143 9.143h27.429v9.143c0 5.143 4 9.143 9.143 9.143h64zM731.429 969.143v-841.143c0-30.286-24.571-54.857-54.857-54.857h-475.429c-30.286 0-54.857 24.571-54.857 54.857v841.143c0 30.286 24.571 54.857 54.857 54.857h475.429c30.286 0 54.857-24.571 54.857-54.857zM877.714 265.143v-18.286c0-5.143-4-9.143-9.143-9.143h-27.429v-9.143c0-5.143-4-9.143-9.143-9.143h-64v73.143h64c5.143 0 9.143-4 9.143-9.143v-9.143h27.429c5.143 0 9.143-4 9.143-9.143zM877.714 411.429v-18.286c0-5.143-4-9.143-9.143-9.143h-27.429v-9.143c0-5.143-4-9.143-9.143-9.143h-64v73.143h64c5.143 0 9.143-4 9.143-9.143v-9.143h27.429c5.143 0 9.143-4 9.143-9.143zM877.714 557.714v-18.286c0-5.143-4-9.143-9.143-9.143h-27.429v-9.143c0-5.143-4-9.143-9.143-9.143h-64v73.143h64c5.143 0 9.143-4 9.143-9.143v-9.143h27.429c5.143 0 9.143-4 9.143-9.143zM877.714 704v-18.286c0-5.143-4-9.143-9.143-9.143h-27.429v-9.143c0-5.143-4-9.143-9.143-9.143h-64v73.143h64c5.143 0 9.143-4 9.143-9.143v-9.143h27.429c5.143 0 9.143-4 9.143-9.143zM877.714 850.286v-18.286c0-5.143-4-9.143-9.143-9.143h-27.429v-9.143c0-5.143-4-9.143-9.143-9.143h-64v73.143h64c5.143 0 9.143-4 9.143-9.143v-9.143h27.429c5.143 0 9.143-4 9.143-9.143z" />
</font>
</defs>
</svg>
